<?xml version="1.0" encoding="utf-8"?>
<!-- Generator: Adobe Illustrator 25.2.0, SVG Export Plug-In . SVG Version: 6.00 Build 0)  -->
<svg version="1.1"
	 id="svg815" inkscape:version="0.92.4 (5da689c313, 2019-01-14)" xmlns:cc="http://creativecommons.org/ns#" xmlns:dc="http://purl.org/dc/elements/1.1/" xmlns:inkscape="http://www.inkscape.org/namespaces/inkscape" xmlns:rdf="http://www.w3.org/1999/02/22-rdf-syntax-ns#" xmlns:sodipodi="http://sodipodi.sourceforge.net/DTD/sodipodi-0.dtd" xmlns:svg="http://www.w3.org/2000/svg"
	 xmlns="http://www.w3.org/2000/svg" xmlns:xlink="http://www.w3.org/1999/xlink" x="0px" y="0px" viewBox="0 0 800 800"
	 style="enable-background:new 0 0 800 800;" xml:space="preserve">
<style type="text/css">
	.st0{clip-path:url(#SVGID_2_);}
	.st1{fill:#FF4100;}
	.st2{clip-path:url(#SVGID_4_);}
	.st3{clip-path:url(#SVGID_6_);}
	.st4{fill:#FF6138;}
	.st5{clip-path:url(#SVGID_8_);}
	.st6{clip-path:url(#SVGID_10_);}
	.st7{fill:#2E3192;}
	.st8{fill:#3EBDB2;}
	.st9{fill:#F7E967;}
	.st10{fill:#FFFFFF;}
	.st11{fill:#FF00FF;}
	.st12{fill:#ED1E79;}
	.st13{fill:#FCEE21;}
	.st14{fill:#29D9C2;}
	.st15{fill:#DC3522;}
	.st16{fill:#468966;}
	.st17{fill:#FF8598;}
	.st18{fill:#BDF271;}
	.st19{clip-path:url(#SVGID_12_);}
</style>
<sodipodi:namedview  bordercolor="#666666" borderopacity="1" gridtolerance="10" guidetolerance="10" id="namedview817" inkscape:current-layer="g823" inkscape:cx="400" inkscape:cy="400" inkscape:pageopacity="0" inkscape:pageshadow="2" inkscape:window-height="1018" inkscape:window-maximized="1" inkscape:window-width="1920" inkscape:window-x="-8" inkscape:window-y="-8" inkscape:zoom="1.06125" objecttolerance="10" pagecolor="#ffffff" showgrid="false">
	</sodipodi:namedview>
<g id="g823" transform="matrix(1.3333333,0,0,-1.3333333,0,800)" inkscape:groupmode="layer" inkscape:label="sale-background-5">
	<g id="g825">
		<g>
			<defs>
				<rect id="SVGID_1_" x="-100" y="-100" width="800" height="800"/>
			</defs>
			<clipPath id="SVGID_2_">
				<use xlink:href="#SVGID_1_"  style="overflow:visible;"/>
			</clipPath>
			<g id="g827" class="st0">
				<path id="path833" inkscape:connector-curvature="0" class="st1" d="M599.9-0.1H0.2v599.9h599.7L599.9-0.1z"/>
				<g id="g835">
					<g>
						<defs>
							<rect id="SVGID_3_" x="-99.7" y="-100.1" width="799.6" height="799.9"/>
						</defs>
						<clipPath id="SVGID_4_">
							<use xlink:href="#SVGID_3_"  style="overflow:visible;"/>
						</clipPath>
						<g id="g837" class="st2">
							<g id="g843">
								<g>
									<defs>
										<rect id="SVGID_5_" x="499.2" y="-92.8" width="798.7" height="791.7"/>
									</defs>
									<clipPath id="SVGID_6_">
										<use xlink:href="#SVGID_5_"  style="overflow:visible;"/>
									</clipPath>
									<g id="g845" class="st3">
										<path id="path851" inkscape:connector-curvature="0" class="st4" d="M610,568.6l-10.7,12.9c-0.5,0.6-0.4,1.6,0.2,2.1
											c0.6,0.5,1.6,0.4,2.1-0.2l7.4-8.9l4.2,11l7.5-9.6l3.9,13.6l7.5-10.3l9,19.7l6.3-13.7l3.2,9.9c0.3,0.8,1.1,1.2,1.9,1
											c0.8-0.3,1.2-1.1,1-1.9l-5.5-17.3l-6.8,14.7l-8.4-18.4l-6.9,9.5l-3.9-13.3l-7.8,10L610,568.6z"/>
									</g>
								</g>
							</g>
							<g id="g853">
								<g>
									<defs>
										<rect id="SVGID_7_" x="499.2" y="-686.6" width="798.7" height="791.7"/>
									</defs>
									<clipPath id="SVGID_8_">
										<use xlink:href="#SVGID_7_"  style="overflow:visible;"/>
									</clipPath>
									<g id="g855" class="st5">
										<path id="path861" inkscape:connector-curvature="0" class="st4" d="M610-25.2l-10.7,12.9c-0.5,0.6-0.4,1.6,0.2,2.1
											c0.6,0.5,1.6,0.4,2.1-0.2l7.4-8.9l4.2,11.1l7.5-9.6l3.9,13.6l7.5-10.3l9,19.7l6.3-13.7l3.2,9.9c0.3,0.8,1.1,1.2,1.9,1
											c0.8-0.3,1.2-1.1,1-1.9L648-16.9l-6.8,14.7l-8.4-18.4l-6.9,9.5L622-24.3l-7.8,10L610-25.2z"/>
									</g>
								</g>
							</g>
							<g id="g863">
								<g>
									<defs>
										<rect id="SVGID_9_" x="-99.8" y="-92.8" width="798.7" height="791.7"/>
									</defs>
									<clipPath id="SVGID_10_">
										<use xlink:href="#SVGID_9_"  style="overflow:visible;"/>
									</clipPath>
									<g id="g865" class="st6">
										<path id="path871" inkscape:connector-curvature="0" class="st7" d="M445,535.1l15-14.9l11.4,30.5L445,535.1z
											 M461.2,514.7l-21.1,21l37,21.9L461.2,514.7z"/>
										<path id="path873" inkscape:connector-curvature="0" class="st7" d="M46.1,117.2l37.1-13.4L64,135.6L46.1,117.2z
											 M90.1,98.1L40.7,116l23.9,24.5L90.1,98.1z"/>
										<path id="path875" inkscape:connector-curvature="0" class="st7" d="M445.4,351.4l-29.5-29.6L455,326L445.4,351.4z
											 M407.8,317.9l38.7,38.9l12.6-33.4L407.8,317.9z"/>
										<path id="path877" inkscape:connector-curvature="0" class="st7" d="M572.9,174.6l18-0.3l-11.1,25.4L572.9,174.6z
											 M595.6,171.3l-26.5,0.4l10.2,37L595.6,171.3z"/>
										<path id="path879" inkscape:connector-curvature="0" class="st7" d="M300.2,234.6l26-47.4l27.2,25.6L300.2,234.6z
											 M325.4,182.4l-31.9,58.2l65.3-26.7L325.4,182.4z"/>
										<path id="path881" inkscape:connector-curvature="0" class="st7" d="M557.7,308.6l-14.9-62.9l44.7,1L557.7,308.6z
											 M539,242.6l17.7,75l35.5-73.8L539,242.6z"/>
										<path id="path883" inkscape:connector-curvature="0" class="st7" d="M78.6,34.3l19.9-22.6L117.5,54L78.6,34.3z M99.4,6.2
											l-25.6,29l49.9,25.3L99.4,6.2z"/>
										<path id="path885" inkscape:connector-curvature="0" class="st7" d="M91.9,237.6l-5.1-24.7l37.9,8.5L91.9,237.6z
											 M82.9,209l6.9,33.1l43.8-21.6L82.9,209z"/>
										<path id="path887" inkscape:connector-curvature="0" class="st7" d="M518.6,114.3l32.7-19.7l6.8,58.3L518.6,114.3z
											 M553.7,89.6l-40,24.1l48.3,47.2L553.7,89.6z"/>
										<path id="path889" inkscape:connector-curvature="0" class="st7" d="M433.7,499.6l-3.3-56.6l35.9,39.4L433.7,499.6z
											 M426.9,434.7l4,69.7l40.2-21.1L426.9,434.7z"/>
										<path id="path891" inkscape:connector-curvature="0" class="st7" d="M135,179.8l13.6-57.5l24.1,50L135,179.8z
											 M147.6,113.4L131,183.7l46.1-9.1L147.6,113.4z"/>
										<path id="path893" inkscape:connector-curvature="0" class="st7" d="M241.7,277.2l20.9-25l-0.5,30.6L241.7,277.2z
											 M265.8,243.8l-29.4,35l28.6,8L265.8,243.8z"/>
										<path id="path895" inkscape:connector-curvature="0" class="st7" d="M134.1,330.1l42.2-3.1l-29,27.2L134.1,330.1z
											 M184.5,323.4l-55.3,4l17.3,31.6L184.5,323.4z"/>
										<path id="path897" inkscape:connector-curvature="0" class="st7" d="M327.3,570.4l21.8-23.3l-2.1,29.9L327.3,570.4z
											 M352.7,538.9L322,571.8l27.8,9.4L352.7,538.9z"/>
										<path id="path899" inkscape:connector-curvature="0" class="st7" d="M381.8,498.7l-33.9-53l56.2,18.7L381.8,498.7z
											 M340.8,440.1l41,64.1l26.9-41.5L340.8,440.1z"/>
										<path id="path901" inkscape:connector-curvature="0" class="st8" d="M17.6,195.5l12.9-2.4l3.3,17.7L15.6,211L17.6,195.5z
											 M32.8,189.6l-18,3.4l-2.7,21.1l25.2-0.3L32.8,189.6z"/>
										<path id="path903" inkscape:connector-curvature="0" class="st8" d="M231.4,209.1l18.1-6.4l8.8,24.8l-26.2,4.4
											L231.4,209.1z M251.3,198.9l-23,8.2l0.9,28.4l33.1-5.6L251.3,198.9z"/>
										<path id="path905" inkscape:connector-curvature="0" class="st8" d="M201.1,441.6l16.5-16.8l13.8,19.3l-18.1,9.5
											L201.1,441.6z M218,420.2l-21.1,21.5l16,15.6l23.1-12.1L218,420.2z"/>
										<path id="path907" inkscape:connector-curvature="0" class="st8" d="M468.4,212.9l19.7-2.6l3.5,27l-27.4-1.2L468.4,212.9z
											 M490.7,207l-24.8,3.2l-5.3,28.7l34.4,1.6L490.7,207z"/>
										<path id="path909" inkscape:connector-curvature="0" class="st8" d="M138.4,515.6l9.9-7.5l8.5,6l-8.2,11.8L138.4,515.6z
											 M148.2,504.4l-14.4,10.9l15.2,15.1l12-17.2L148.2,504.4z"/>
										<path id="path911" inkscape:connector-curvature="0" class="st8" d="M15.7,21.3l14.1-0.8l-1.7,14l-11.8-3.1L15.7,21.3z
											 M33.2,17.3l-20.6,1.1l0.8,15.4l17.3,4.5L33.2,17.3z"/>
										<path id="path913" inkscape:connector-curvature="0" class="st8" d="M260.9,177.9l23.9-12.2l7.9,25.9l-23,3.7L260.9,177.9
											z M286.6,161.4l-29.8,15.2l11.3,22.1l28.5-4.6L286.6,161.4z"/>
										<path id="path915" inkscape:connector-curvature="0" class="st8" d="M400.3,499.5l10.3-9.1l6.6,9.9l-6.2,7.7L400.3,499.5z
											 M411.2,485.9l-15.6,13.7l15.8,12.7l9.4-11.8L411.2,485.9z"/>
										<path id="path917" inkscape:connector-curvature="0" class="st8" d="M365.9,321.9l22.4-9.5l5.5,24l-21,1.9L365.9,321.9z
											 M390.5,308.2L362,320.3l9,21.1l26.6-2.4L390.5,308.2z"/>
										<path id="path919" inkscape:connector-curvature="0" class="st8" d="M185.2,307.2l8.3-6.3l4.8,9.2l-8.5,3L185.2,307.2z
											 M194.5,296.3L181,306.6l7.7,10.1l13.8-4.9L194.5,296.3z"/>
										<path id="path921" inkscape:connector-curvature="0" class="st8" d="M509.9,222.6l12.1-13.5l18.5,16.6l-19.7,15.4
											L509.9,222.6z M521.7,204.9l-15.6,17.3l13.7,23.5l25.3-19.8L521.7,204.9z"/>
										<path id="path923" inkscape:connector-curvature="0" class="st8" d="M16.8,413.4l6-21.5l17.7,7.6l-1.5,16.1L16.8,413.4z
											 M20.8,387.8l-7.9,28.3l28.6,2.8l2-21.2L20.8,387.8z"/>
										<path id="path925" inkscape:connector-curvature="0" class="st8" d="M441.3,158.8l10.4-21.5l17.1,11.4l-4.7,16.6
											L441.3,158.8z M450.5,132.9L437,160.7l29.1,8.2l6.1-21.6L450.5,132.9z"/>
										<path id="path927" inkscape:connector-curvature="0" class="st8" d="M290.6,357.2l-1.1-26.8l26.8,3.6l-6.2,22.4
											L290.6,357.2z M286.3,327l1.4,33.3l24.7-1.1l7.6-27.8L286.3,327z"/>
										<path id="path929" inkscape:connector-curvature="0" class="st8" d="M17.3,150.6l14.2-4.9l6.7,19.6l-20.6,3.3L17.3,150.6z
											 M33.3,141.9l-19.1,6.6l0.5,23.5l27.5-4.4L33.3,141.9z"/>
										<path id="path931" inkscape:connector-curvature="0" class="st9" d="M587.2,382.2c-0.3,0-0.6,0.1-0.8,0.2
											c-0.7,0.4-0.9,1.4-0.5,2.1c0.1,0.1,6.8,10.8,3.2,21.2c-2.4,6.9-8.7,12.2-18.8,15.8c-0.8,0.3-1.2,1.1-0.9,1.9
											s1.1,1.2,1.9,0.9c11-3.9,17.9-9.9,20.6-17.7c4-11.8-3.2-23.3-3.5-23.8C588.2,382.5,587.7,382.2,587.2,382.2"/>
										<path id="path933" inkscape:connector-curvature="0" class="st9" d="M376.4,29.1L376.4,29.1c-0.8,0-1.5,0.7-1.5,1.5
											c0.1,11.3,3.4,19.5,9.7,24.4c9.5,7.4,22.3,4.4,22.8,4.3c0.8-0.2,1.3-1,1.1-1.8c-0.2-0.8-1-1.3-1.8-1.1
											c-0.1,0-12,2.7-20.3-3.8c-5.5-4.3-8.4-11.7-8.5-22C377.9,29.7,377.3,29.1,376.4,29.1"/>
										<path id="path935" inkscape:connector-curvature="0" class="st9" d="M322.6,451.9c-0.5,0-0.9,0.2-1.2,0.6
											c-0.5,0.7-0.3,1.6,0.3,2.1c0.1,0.1,7.8,5.9,8.2,14.3c0.2,5.6-2.8,11.1-9,16.5c-0.6,0.5-0.7,1.5-0.1,2.1
											c0.5,0.6,1.5,0.7,2.1,0.1c7-6,10.4-12.4,10.1-19c-0.4-9.9-9-16.3-9.4-16.6C323.2,452,322.9,451.9,322.6,451.9"/>
										<path id="path937" inkscape:connector-curvature="0" class="st9" d="M152.4,424.9c-0.5,0-0.9,0.2-1.2,0.6
											c-6.9,9.5-9.2,18.3-7,26.3c3.3,12,15.8,17.5,16.4,17.7c0.8,0.3,1.6,0,2-0.8s0-1.6-0.8-2c-0.1,0-11.7-5.1-14.7-15.8
											c-1.9-7,0.3-15,6.6-23.7c0.5-0.7,0.3-1.6-0.3-2.1C153,425,152.7,424.9,152.4,424.9"/>
										<path id="path939" inkscape:connector-curvature="0" class="st9" d="M426.8,520.4c-0.5,0-1,0.3-1.3,0.8
											c-5.4,9.6-6.6,18.2-3.6,25.4c4.5,10.9,16.8,14.6,17.3,14.8c0.8,0.2,1.6-0.2,1.9-1c0.2-0.8-0.2-1.6-1-1.9
											c-0.1,0-11.5-3.5-15.4-13c-2.6-6.3-1.4-14,3.5-22.8c0.4-0.7,0.1-1.6-0.6-2C427.3,520.5,427,520.4,426.8,520.4"/>
										<path id="path941" inkscape:connector-curvature="0" class="st9" d="M162.7,484.3c-0.4,0-0.7,0.1-1,0.4
											c-0.6,0.6-0.7,1.5-0.1,2.1c7.8,8.7,16,12.9,24.2,12.4c12.5-0.7,20.4-11.8,20.7-12.3c0.5-0.7,0.3-1.6-0.4-2.1
											c-0.7-0.5-1.6-0.3-2.1,0.4c-0.1,0.1-7.5,10.4-18.5,11c-7.3,0.4-14.6-3.4-21.8-11.4C163.5,484.4,163.1,484.3,162.7,484.3"
											/>
										<path id="path943" inkscape:connector-curvature="0" class="st9" d="M376.4,388.8c-0.2,0-0.4,0-0.7,0
											c-8.9,0.4-14.8,8.2-15,8.5c-0.5,0.7-0.3,1.6,0.3,2.1c0.7,0.5,1.6,0.3,2.1-0.3c0.1-0.1,5.2-7,12.7-7.3
											c5-0.2,9.9,2.5,14.8,8.1c0.5,0.6,1.5,0.7,2.1,0.1c0.6-0.5,0.7-1.5,0.1-2.1C387.6,391.8,382.1,388.8,376.4,388.8"/>
										<path id="path945" inkscape:connector-curvature="0" class="st9" d="M548.3,55.4c-0.7,0-1.2,0.4-1.4,1.1
											c-2.2,7.7-1.7,13.9,1.6,18.6c4.9,7,14.3,7.7,14.7,7.7c0.8,0.1,1.5-0.6,1.6-1.4s-0.6-1.5-1.4-1.6c-0.1,0-8.3-0.6-12.4-6.4
											c-2.7-3.9-3.1-9.3-1.1-16c0.2-0.8-0.2-1.6-1-1.9C548.6,55.5,548.5,55.4,548.3,55.4"/>
										<path id="path947" inkscape:connector-curvature="0" class="st9" d="M137.4,266.8C137.4,266.8,137.4,266.8,137.4,266.8
											c-0.9,0-1.5,0.7-1.5,1.5c0,0.1,0.3,14.7-9.4,22.9c-6.4,5.5-15.8,7-27.9,4.7c-0.8-0.2-1.6,0.4-1.8,1.2
											c-0.2,0.8,0.4,1.6,1.2,1.8c13.1,2.5,23.3,0.7,30.5-5.3c10.8-9.2,10.4-24.7,10.4-25.3C138.9,267.4,138.3,266.8,137.4,266.8
											"/>
										<path id="path949" inkscape:connector-curvature="0" class="st9" d="M234.6,9.5c-0.5,0-1,0.2-1.2,0.7
											c-0.1,0.1-6.4,9.3-16.2,10.1c-6.4,0.5-13-2.8-19.5-9.7c-0.6-0.6-1.5-0.6-2.1-0.1c-0.6,0.6-0.6,1.5-0.1,2.1
											c7.2,7.7,14.6,11.2,22,10.6c11.2-0.9,18.1-11,18.4-11.4c0.5-0.7,0.3-1.6-0.4-2.1C235.2,9.6,234.9,9.5,234.6,9.5"/>
										<path id="path951" inkscape:connector-curvature="0" class="st9" d="M228.5,493.2c-0.3,0-0.5,0.1-0.8,0.2
											c-7.4,4.3-11.5,9.6-12.4,15.6c-1.3,9.1,5.5,16.4,5.8,16.7c0.6,0.6,1.5,0.6,2.1,0.1c0.6-0.6,0.6-1.5,0.1-2.1
											c-0.1-0.1-6.1-6.6-5-14.3c0.7-5.1,4.4-9.6,10.9-13.4c0.7-0.4,1-1.3,0.5-2.1C229.6,493.5,229.1,493.2,228.5,493.2"/>
										<path id="path953" inkscape:connector-curvature="0" class="st9" d="M109.2,518c-0.6,0-1.1,0.3-1.4,0.9h0
											c0,0.1-2.6,6-8,7.5c-3.6,1-7.6-0.2-12.1-3.4c-0.7-0.5-1.6-0.3-2.1,0.3s-0.3,1.6,0.3,2.1c5.3,3.8,10.2,5.1,14.7,3.8
											c6.8-1.9,9.8-8.9,9.9-9.2c0.3-0.8,0-1.6-0.8-2C109.6,518.1,109.4,518,109.2,518"/>
										<path id="path955" inkscape:connector-curvature="0" class="st9" d="M556.2,431.8c-0.8,0-1.4,0.6-1.5,1.3
											c-0.1,0.8,0.5,1.6,1.3,1.6c0.1,0,10.9,1.3,16,9.2c3.4,5.3,3.6,12.4,0.6,21.2c-0.3,0.8,0.2,1.6,0.9,1.9
											c0.8,0.3,1.6-0.2,1.9-0.9c3.3-9.7,3-17.7-0.9-23.8c-5.9-9.2-17.7-10.5-18.2-10.6C556.3,431.8,556.2,431.8,556.2,431.8"/>
										<path id="path957" inkscape:connector-curvature="0" class="st9" d="M80.4,247.7c0,0-0.1,0-0.1,0
											c-13.5,1.3-23,6.1-28.2,14.1c-7.9,12.1-3,27.1-2.8,27.8c0.3,0.8,1.1,1.2,1.9,0.9c0.8-0.3,1.2-1.1,1-1.9
											c0-0.1-4.6-14.3,2.5-25.2c4.7-7.2,13.4-11.5,26-12.7c0.8-0.1,1.4-0.8,1.3-1.6C81.8,248.3,81.1,247.7,80.4,247.7"/>
										<path id="path959" inkscape:connector-curvature="0" class="st9" d="M489.3,434.9c-0.4,0-0.9,0.2-1.2,0.6
											c-0.5,0.6-0.4,1.6,0.2,2.1c0.1,0.1,10,8,10,19.1c0,7.3-4.2,14.5-12.6,21.2c-0.6,0.5-0.7,1.5-0.2,2.1
											c0.5,0.6,1.5,0.7,2.1,0.2c9.1-7.4,13.7-15.3,13.7-23.6c-0.1-12.5-10.7-21.1-11.2-21.4C490,435,489.7,434.9,489.3,434.9"/>
										<path id="path961" inkscape:connector-curvature="0" class="st10" d="M409.7,298.5c-0.8,0-1.5,0.7-1.5,1.5
											c0,0.8,0.7,1.5,1.5,1.5l18.5,0.2c0.8,0,1.5-0.7,1.5-1.5c0-0.8-0.7-1.5-1.5-1.5L409.7,298.5L409.7,298.5z"/>
										<path id="path963" inkscape:connector-curvature="0" class="st10" d="M420.1,113.5c-0.7,0-1.3,0.5-1.5,1.2
											c-0.2,0.8,0.3,1.6,1.1,1.8l16.6,3.7c0.8,0.2,1.6-0.3,1.8-1.1c0.2-0.8-0.3-1.6-1.1-1.8l-16.6-3.7
											C420.3,113.6,420.2,113.5,420.1,113.5"/>
										<path id="path965" inkscape:connector-curvature="0" class="st10" d="M476.9,446.7L476.9,446.7c-0.8,0-1.5,0.7-1.5,1.5
											l0.1,24.7c0,0.8,0.7,1.5,1.5,1.5h0c0.8,0,1.5-0.7,1.5-1.5l-0.1-24.7C478.4,447.4,477.7,446.7,476.9,446.7"/>
										<path id="path967" inkscape:connector-curvature="0" class="st10" d="M556.3,586.2c-0.1,0-0.1,0-0.2,0l-16.2,1.6
											c-0.8,0.1-1.4,0.8-1.3,1.6s0.8,1.4,1.6,1.3l16.2-1.6c0.8-0.1,1.4-0.8,1.3-1.6C557.7,586.7,557,586.2,556.3,586.2"/>
										<path id="path969" inkscape:connector-curvature="0" class="st10" d="M99.5,549.4c0,0-0.1,0-0.1,0l-12.7,0.9
											c-0.8,0.1-1.4,0.8-1.4,1.6c0.1,0.8,0.8,1.4,1.6,1.4l12.7-0.9c0.8-0.1,1.5-0.8,1.4-1.6C100.9,550,100.3,549.4,99.5,549.4"
											/>
										<path id="path971" inkscape:connector-curvature="0" class="st10" d="M544.9,358.7c-0.3,0-0.6,0.1-0.8,0.3
											c-0.7,0.5-0.9,1.4-0.4,2.1l12.4,18.6c0.5,0.7,1.4,0.9,2.1,0.4c0.7-0.5,0.9-1.4,0.4-2.1l-12.4-18.6
											C545.9,358.9,545.4,358.7,544.9,358.7"/>
										<path id="path973" inkscape:connector-curvature="0" class="st10" d="M572.5,132.2c-0.8,0-1.5,0.7-1.5,1.5
											c0,0.8,0.6,1.5,1.5,1.5l18.9,0.3h0c0.8,0,1.5-0.7,1.5-1.5c0-0.8-0.6-1.5-1.5-1.5L572.5,132.2L572.5,132.2z"/>
										<path id="path975" inkscape:connector-curvature="0" class="st10" d="M12.1,54.3c-0.7,0-1.4,0.5-1.5,1.3
											c-0.1,0.8,0.4,1.6,1.2,1.7l16.1,2.6c0.8,0.1,1.6-0.4,1.7-1.2c0.1-0.8-0.4-1.6-1.2-1.7l-16.1-2.6
											C12.3,54.3,12.2,54.3,12.1,54.3"/>
										<path id="path977" inkscape:connector-curvature="0" class="st10" d="M366.4,588.3c-0.1,0-0.3,0-0.4,0.1l-11.2,3.1
											c-0.8,0.2-1.3,1-1.1,1.8c0.2,0.8,1,1.3,1.8,1.1l11.2-3.1c0.8-0.2,1.3-1,1.1-1.8C367.7,588.7,367.1,588.3,366.4,588.3"/>
										<path id="path979" inkscape:connector-curvature="0" class="st10" d="M422,416.7c-0.6,0-1.1,0.3-1.4,0.9l-8.2,17.4
											c-0.4,0.8,0,1.6,0.7,2c0.8,0.4,1.6,0,2-0.7l8.2-17.4c0.4-0.8,0-1.6-0.7-2C422.4,416.7,422.2,416.7,422,416.7"/>
										<path id="path981" inkscape:connector-curvature="0" class="st10" d="M332.4,380.4c-0.4,0-0.8,0.1-1.1,0.4
											c-0.6,0.6-0.6,1.5,0,2.1l11.1,11c0.6,0.6,1.5,0.6,2.1,0s0.6-1.5,0-2.1l-11.1-11C333.2,380.6,332.8,380.4,332.4,380.4"/>
										<path id="path983" inkscape:connector-curvature="0" class="st10" d="M71,223.3c-0.1,0-0.3,0-0.4,0l-21.8,5.7
											c-0.8,0.2-1.3,1-1.1,1.8c0.2,0.8,1,1.3,1.8,1.1l21.8-5.7c0.8-0.2,1.3-1,1.1-1.8C72.3,223.7,71.7,223.3,71,223.3"/>
										<path id="path985" inkscape:connector-curvature="0" class="st10" d="M590.2,542.4c-0.8,0-1.4,0.6-1.5,1.4l-1.3,18.6
											c-0.1,0.8,0.6,1.5,1.4,1.6c0.8,0.1,1.5-0.6,1.6-1.4l1.3-18.6c0.1-0.8-0.6-1.5-1.4-1.6
											C590.3,542.4,590.3,542.4,590.2,542.4"/>
										<path id="path987" inkscape:connector-curvature="0" class="st10" d="M301.8,585.8c-0.7,0-1.3,0.5-1.5,1.1
											c-0.2,0.8,0.3,1.6,1.1,1.8l15.3,3.9c0.8,0.2,1.6-0.3,1.8-1.1s-0.3-1.6-1.1-1.8l-15.3-3.9
											C302,585.9,301.9,585.8,301.8,585.8"/>
										<path id="path989" inkscape:connector-curvature="0" class="st10" d="M591.5,445.5L591.5,445.5c-0.8,0-1.5,0.7-1.5,1.5
											l0,16.6c0,0.8,0.7,1.5,1.5,1.5h0c0.8,0,1.5-0.7,1.5-1.5l0-16.6C593,446.2,592.3,445.5,591.5,445.5"/>
										<path id="path991" inkscape:connector-curvature="0" class="st10" d="M482.7,497c-0.3,0-0.5,0.1-0.8,0.2l-10.2,5.9
											c-0.7,0.4-1,1.3-0.5,2c0.4,0.7,1.3,1,2,0.5l10.2-5.9c0.7-0.4,1-1.3,0.5-2C483.7,497.2,483.2,497,482.7,497"/>
										<path id="path993" inkscape:connector-curvature="0" class="st10" d="M84.1,266.5c-0.2,0-0.3,0-0.5,0.1l-18.2,5.9
											c-0.8,0.3-1.2,1.1-1,1.9c0.3,0.8,1.1,1.2,1.9,1l18.2-5.9c0.8-0.3,1.2-1.1,1-1.9C85.3,266.9,84.7,266.5,84.1,266.5"/>
										<path id="path995" inkscape:connector-curvature="0" class="st10" d="M164.4,441.6c-0.3,0-0.6,0.1-0.9,0.3
											c-0.7,0.5-0.8,1.4-0.4,2.1l6.9,9.7c0.5,0.7,1.4,0.8,2.1,0.4c0.7-0.5,0.8-1.4,0.4-2.1l-6.9-9.7
											C165.3,441.9,164.8,441.6,164.4,441.6"/>
										<path id="path997" inkscape:connector-curvature="0" class="st10" d="M570.4,548.4c-0.4,0-0.7,0.1-1,0.4l-14.6,13.3
											c-0.6,0.6-0.7,1.5-0.1,2.1c0.6,0.6,1.5,0.7,2.1,0.1l14.6-13.3c0.6-0.6,0.7-1.5,0.1-2.1
											C571.2,548.6,570.8,548.4,570.4,548.4"/>
										<path id="path999" inkscape:connector-curvature="0" class="st10" d="M467.5,14.7c-0.6,0-1.2,0.4-1.4,1
											c-0.3,0.8,0.1,1.6,0.9,1.9l20.1,7.4c0.8,0.3,1.6-0.1,1.9-0.9c0.3-0.8-0.1-1.6-0.9-1.9L468,14.7
											C467.8,14.7,467.7,14.7,467.5,14.7"/>
										<path id="path1001" inkscape:connector-curvature="0" class="st10" d="M25.3,77c-0.1,0-0.2,0-0.3,0L10,79.7
											c-0.8,0.1-1.4,0.9-1.2,1.7c0.1,0.8,0.9,1.4,1.7,1.2L25.6,80c0.8-0.1,1.4-0.9,1.2-1.7C26.7,77.5,26.1,77,25.3,77"/>
										<path id="path1003" inkscape:connector-curvature="0" class="st10" d="M160.2,303.2c-0.1,0-0.1,0-0.2,0l-20.4,2.1
											c-0.8,0.1-1.4,0.8-1.3,1.6c0.1,0.8,0.8,1.4,1.6,1.3l20.4-2.1c0.8-0.1,1.4-0.8,1.3-1.6C161.7,303.8,161,303.2,160.2,303.2"
											/>
										<path id="path1005" inkscape:connector-curvature="0" class="st10" d="M524.9,262.4c-0.8,0-1.4,0.6-1.5,1.4l-0.8,12.5
											c-0.1,0.8,0.6,1.5,1.4,1.6c0.8,0.1,1.5-0.6,1.6-1.4l0.8-12.5c0.1-0.8-0.6-1.5-1.4-1.6C525,262.4,525,262.4,524.9,262.4"/>
										<path id="path1007" inkscape:connector-curvature="0" class="st10" d="M591,150.9c-0.1,0-0.2,0-0.3,0l-12.6,2.4
											c-0.8,0.2-1.4,0.9-1.2,1.8c0.2,0.8,0.9,1.4,1.8,1.2l12.6-2.4c0.8-0.2,1.4-0.9,1.2-1.8C592.3,151.4,591.7,150.9,591,150.9"
											/>
										<path id="path1009" inkscape:connector-curvature="0" class="st10" d="M72.4,579c-0.4,0-0.7,0.1-1,0.4
											c-0.6,0.6-0.7,1.5-0.1,2.1l9.7,10.7c0.6,0.6,1.5,0.7,2.1,0.1c0.6-0.6,0.7-1.5,0.1-2.1l-9.7-10.7
											C73.2,579.2,72.8,579,72.4,579"/>
										<path id="path1011" inkscape:connector-curvature="0" class="st10" d="M75.1,284.3c-0.5,0-1,0.2-1.3,0.7
											c-0.4,0.7-0.2,1.6,0.5,2.1l10.5,6.5c0.7,0.4,1.6,0.2,2.1-0.5c0.4-0.7,0.2-1.6-0.5-2.1l-10.5-6.5
											C75.6,284.4,75.3,284.3,75.1,284.3"/>
										<path id="path1013" inkscape:connector-curvature="0" class="st10" d="M15.8,520.7C15.7,520.7,15.7,520.7,15.8,520.7
											c-0.9,0.1-1.6,0.8-1.5,1.6l1.4,22.3c0.1,0.8,0.8,1.4,1.6,1.4c0.8-0.1,1.5-0.8,1.4-1.6l-1.4-22.3
											C17.2,521.3,16.6,520.7,15.8,520.7"/>
										<path id="path1015" inkscape:connector-curvature="0" class="st10" d="M51.2,14.4c-0.8,0-1.4,0.6-1.5,1.3
											c-0.1,0.8,0.5,1.6,1.3,1.7l15.4,1.7c0.8,0.1,1.6-0.5,1.7-1.3c0.1-0.8-0.5-1.6-1.3-1.7l-15.4-1.7
											C51.3,14.4,51.3,14.4,51.2,14.4"/>
										<path id="path1017" inkscape:connector-curvature="0" class="st10" d="M541.4,12.1c-0.8,0-1.4,0.6-1.5,1.3
											c-0.1,0.8,0.5,1.6,1.3,1.7l13.3,1.5c0.8,0.1,1.6-0.5,1.7-1.3c0.1-0.8-0.5-1.6-1.3-1.7l-13.3-1.5
											C541.5,12.1,541.4,12.1,541.4,12.1"/>
										<path id="path1019" inkscape:connector-curvature="0" class="st10" d="M374.5,12.3c-0.7,0-1.3,0.5-1.5,1.2
											c-0.1,0.8,0.4,1.6,1.2,1.7l15.5,2.8c0.8,0.1,1.6-0.4,1.7-1.2c0.1-0.8-0.4-1.6-1.2-1.7l-15.5-2.8
											C374.7,12.3,374.6,12.3,374.5,12.3"/>
										<path id="path1021" inkscape:connector-curvature="0" class="st4" d="M213.7,275c-0.7,0-1.3,0.5-1.5,1.2l-5.3,27
											l21.3-15.7l-2.5,33.9l17.9-8.4l-5.1,22.5l19.2-8.2l-2.7,19.2l24.2-9.5c0.8-0.3,1.2-1.2,0.8-1.9c-0.3-0.8-1.2-1.1-1.9-0.8
											l-19.4,7.6l2.8-19.3l-18.7,7.9l5.1-22.7l-18.8,8.8l2.6-35.3l-20.3,15l3.8-19.4c0.2-0.8-0.4-1.6-1.2-1.8
											C213.9,275,213.8,275,213.7,275"/>
										<path id="path1023" inkscape:connector-curvature="0" class="st4" d="M139.1,366l-23.6,10.8c-0.8,0.3-1.1,1.2-0.7,2
											c0.3,0.8,1.2,1.1,2,0.7l18.9-8.6l-1.7,19.4l18.2-8.9l-3.9,22.9l18.3-9.8l-0.7,35.3l19.5-16.1l-2.8,19.5
											c-0.1,0.8,0.5,1.6,1.3,1.7c0.8,0.1,1.6-0.5,1.7-1.3l3.8-27.2l-20.4,16.8l0.7-33.9l-17.4,9.3L156,376l-18.7,9.2L139.1,366z
											"/>
										<path id="path1025" inkscape:connector-curvature="0" class="st4" d="M543.9,175.7c-0.7,0-1.3,0.5-1.5,1.2l-4,21.8
											l16.4-12.5l-1.6,26.1l13.7-6.7l-3.7,17.4l14.8-6.5l-1.9,14.8l19.2-7.8c0.8-0.3,1.1-1.2,0.8-2c-0.3-0.8-1.2-1.1-2-0.8
											l-14.4,5.9l1.9-15l-14.3,6.3l3.7-17.7l-14.6,7.1l1.7-27.5l-15.5,11.8l2.6-14.2c0.1-0.8-0.4-1.6-1.2-1.7
											C544.1,175.8,544,175.7,543.9,175.7"/>
										<path id="path1027" inkscape:connector-curvature="0" class="st4" d="M11,568.6L0.3,581.4c-0.5,0.6-0.4,1.6,0.2,2.1
											c0.6,0.5,1.6,0.4,2.1-0.2l7.4-8.9l4.2,11l7.5-9.6l3.9,13.6l7.5-10.3l9,19.7l6.3-13.7l3.2,9.9c0.3,0.8,1.1,1.2,1.9,1
											c0.8-0.3,1.2-1.1,1-1.9l-5.5-17.3l-6.8,14.7l-8.4-18.4l-6.9,9.5L23,569.5l-7.8,10L11,568.6z"/>
										<path id="path1029" inkscape:connector-curvature="0" class="st4" d="M242.4,498.3c-0.4,0-0.8,0.1-1,0.4
											c-0.6,0.6-0.6,1.5,0,2.1l16.3,16.7l-20.9,5.4l16.1,15.7l-25.4,4.5l17,15.4L207.4,571l24.1,14.4l-21.8,4.5
											c-0.8,0.2-1.3,1-1.2,1.8c0.2,0.8,1,1.3,1.8,1.2l29.4-6l-25.1-15l35.7-12L234,545.1l25.1-4.4l-16.5-16.1l20.7-5.4
											l-19.8-20.4C243.2,498.5,242.8,498.3,242.4,498.3"/>
										<path id="path1031" inkscape:connector-curvature="0" class="st4" d="M462.2,252.2c-0.6,0-1.2,0.4-1.4,1l-5.5,15.6
											l-10.5-12.1l-5.1,15.8l-11.3-15.4l-4.6,16.5l-20.5-20.6l-1.6,20.5l-9.5-12.2c-0.5-0.7-1.5-0.8-2.1-0.3
											c-0.7,0.5-0.8,1.5-0.3,2.1l14.3,18.3l1.7-21.7l19.5,19.6l4.4-15.5l11.2,15.1l5.2-16.3l10.4,11.9l7.2-20.5
											c0.3-0.8-0.1-1.6-0.9-1.9C462.5,252.3,462.4,252.2,462.2,252.2"/>
										<path id="path1033" inkscape:connector-curvature="0" class="st4" d="M63.4,446.1c-0.4,0-0.8,0.1-1.1,0.4l-16,16.3
											l21.4-1.1l-16.6,21.5l15.7,2.3l-13.3,12.8l16.5,3l-10.3,11.6l20.9,4.4c0.8,0.2,1.6-0.3,1.8-1.2c0.2-0.8-0.3-1.6-1.2-1.8
											L65.4,511l10.4-11.8l-16-2.9l13.5-13L56.6,481l17.4-22.6l-20.2,1.1l10.6-10.8c0.6-0.6,0.6-1.5,0-2.1
											C64.2,446.2,63.8,446.1,63.4,446.1"/>
										<path id="path1035" inkscape:connector-curvature="0" class="st4" d="M411.4,76.9l-2.8,21.9l-18.8-20.9l-5.2,15.5
											L374,77.5l-6.2,16.2L358,81.1l-8.4,20.3c-0.3,0.8,0,1.6,0.8,2c0.8,0.3,1.6-0.1,2-0.8l6.4-15.6l10,12.8l6-15.7l10.7,16.2
											l5.6-16.4l19.7,21.9l2.7-20.7l9,12.9c0.5,0.7,1.4,0.8,2.1,0.4c0.7-0.5,0.8-1.4,0.4-2.1L411.4,76.9z"/>
										<path id="path1037" inkscape:connector-curvature="0" class="st4" d="M295.7,87.2l-27.3,0.3c-0.8,0-1.5,0.7-1.5,1.5
											c0,0.8,0.7,1.5,1.5,1.5l22.2-0.3l-9.9,18.1l21.5-0.9L288.5,128l21.9-1.7l-15.8,33.9l25.8-7.3l-11.1,17.9
											c-0.4,0.7-0.2,1.6,0.5,2.1c0.7,0.4,1.6,0.2,2.1-0.5l15.2-24.5l-26.9,7.6l15.2-32.6l-20.9,1.6l13.4-20.3l-22,0.9
											L295.7,87.2z"/>
										<path id="path1039" inkscape:connector-curvature="0" class="st4" d="M204,235l-6.2,10.8l-1.7-7.9c-0.2-0.8-1-1.3-1.8-1.1
											c-0.8,0.2-1.3,1-1.1,1.8l3.4,15.4l6.8-11.8l5.6,15.8l6.4-7.3l2.2,11.3l7.3-7.7l2.6,9.4l10.2-10.2c0.6-0.6,0.6-1.5,0-2.1
											c-0.6-0.6-1.5-0.6-2.1,0l-6.5,6.5l-2.6-9.5l-6.9,7.3l-2.2-11.6l-7.1,8.1L204,235z"/>
										<path id="path1041" inkscape:connector-curvature="0" class="st4" d="M291.4,10.2c-0.8,0-1.5,0.6-1.5,1.4l-0.7,17.8
											l11.2-11.3l1.6,19.8l9.5-6.5L310.6,45l10.6-6.6l0.2,11.4l14.2-8.3c0.7-0.4,1-1.3,0.5-2.1c-0.4-0.7-1.3-1-2.1-0.5l-9.7,5.7
											L324.1,33L314,39.3l0.9-13.8l-10.4,7l-1.7-21.2l-10.3,10.5l0.4-10.1C292.9,10.9,292.2,10.2,291.4,10.2
											C291.4,10.2,291.4,10.2,291.4,10.2"/>
										<path id="path1043" inkscape:connector-curvature="0" class="st4" d="M433,175l-3.3,13.8l-4.6-8.4c-0.4-0.7-1.3-1-2-0.6
											c-0.7,0.4-1,1.3-0.6,2l8.4,15.2l3.6-15l11.2,15.5l4.7-10.1l6,11.7l5.5-10.7l5.8,9.4l7.7-14c0.4-0.7,0.1-1.6-0.6-2
											c-0.7-0.4-1.6-0.1-2,0.6l-5.2,9.5l-5.9-9.5l-5.2,10.2l-6.1-11.9l-5.1,11L433,175z"/>
										<path id="path1045" inkscape:connector-curvature="0" class="st4" d="M46.2,34c-0.5,0-1,0.3-1.3,0.7
											c-0.4,0.7-0.2,1.6,0.5,2.1l10.3,6.1l-10.5,6L56.1,55L43,61.1l11.7,6L36.1,79.4L51,83.6l-9.6,4.8c-0.7,0.4-1,1.3-0.7,2
											c0.4,0.7,1.3,1,2,0.7l16.5-8.3l-16-4.5l17.3-11.5l-10.8-5.5l12.9-6l-11.4-6.4L61.7,43L47,34.2C46.8,34.1,46.5,34,46.2,34"
											/>
										<path id="path1047" inkscape:connector-curvature="0" class="st4" d="M410.1,347.8c-0.4,0-0.9,0.2-1.2,0.6l-11.3,14
											l15.8-2.4L403,376.8l11.6,0.5l-8.9,10.4l12.5,1l-6.7,9.3l16.4,1.8c0.8,0.1,1.6-0.5,1.7-1.3c0.1-0.8-0.5-1.6-1.3-1.7
											l-11.3-1.3l6.8-9.5l-12-1l9.1-10.6l-12.6-0.6l11.3-18.1l-14.7,2.2l6.4-7.9c0.5-0.6,0.4-1.6-0.2-2.1
											C410.8,347.9,410.5,347.8,410.1,347.8"/>
										<path id="path1049" inkscape:connector-curvature="0" class="st4" d="M557.4,461.9l2.5,22.6L536,468.2l-1.5,16.8
											l-14.4-13.4l-2.2,17.7l-13-10.3l-3.5,22.3c-0.1,0.8,0.4,1.6,1.3,1.7c0.8,0.1,1.6-0.4,1.7-1.3l2.7-17.3l13.1,10.4l2.2-17.2
											l14.6,13.6l1.6-17.8l25.1,17.2l-2.4-21.4l12.3,10.8c0.6,0.5,1.6,0.5,2.1-0.1c0.5-0.6,0.5-1.6-0.1-2.1L557.4,461.9z"/>
										<path id="path1051" inkscape:connector-curvature="0" class="st11" d="M188.5,463.7l4.1-2.6l-0.5,4.8l3.7,3.1l-4.8,1
											l-1.8,4.5l-2.5-4.2l-4.9-0.4l3.2-3.6l-1.2-4.7L188.5,463.7z M196.3,455.4l-8,4.9l-8.6-3.8l2.2,9.1l-6.2,7l9.3,0.7l4.7,8.1
											l3.5-8.7l9.1-2l-7.2-6L196.3,455.4z"/>
										<path id="path1053" inkscape:connector-curvature="0" class="st11" d="M450.1,434.7l4.4-4l-0.8-5.9l5.2,2.9l5.3-2.6
											l-1.2,5.8l4.1,4.3l-5.9,0.7l-2.8,5.2l-2.5-5.4L450.1,434.7z M449.8,419.3l1.5,10.3l-7.7,7.1l10.3,1.8l4.3,9.5l4.9-9.2
											l10.4-1.2l-7.3-7.5l2.1-10.2l-9.4,4.6L449.8,419.3z"/>
										<path id="path1055" inkscape:connector-curvature="0" class="st11" d="M494.9,566.1l11.8-0.2l6.5-9.8l3.8,11.2l11.4,3.2
											l-9.4,7.1l0.5,11.8l-9.7-6.8l-11.1,4.1l3.5-11.3L494.9,566.1z M514.1,549.4l-9,13.6l-16.3,0.3l10.1,12.8l-4.8,15.6
											l15.3-5.7l13.4,9.4L522,579l13-9.8l-15.7-4.4L514.1,549.4z"/>
										<path id="path1057" inkscape:connector-curvature="0" class="st11" d="M423.6,219.8l7-0.6l3.4-6.1l2.7,6.4l6.8,1.4
											l-5.3,4.6l0.8,6.9l-6-3.6l-6.4,2.9l1.6-6.8L423.6,219.8z M434.4,206.3l-5.7,10l-11.4,1l7.8,8.5l-2.6,11.2l10.5-4.8
											l9.8,5.9l-1.3-11.4l8.7-7.5l-11.3-2.3L434.4,206.3z"/>
										<path id="path1059" inkscape:connector-curvature="0" class="st11" d="M252.8,130.9l8.5-0.9l4.1-7.5l3.5,7.8l8.4,1.5
											l-6.4,5.8l1.1,8.5l-7.4-4.3l-7.7,3.7l1.8-8.4L252.8,130.9z M265.7,115.6l-6.2,11.5l-13,1.4l9,9.5l-2.7,12.8l11.8-5.7
											l11.3,6.5l-1.7-13l9.7-8.8l-12.9-2.3L265.7,115.6z"/>
										<path id="path1061" inkscape:connector-curvature="0" class="st11" d="M169.7,542.1l9.4-6.5l0-11.4l9.1,7l10.9-3.5
											l-3.8,10.8l6.7,9.3l-11.4-0.3l-6.7,9.3l-3.3-11L169.7,542.1z M176.1,518.1l0,15.9l-13.1,9l15.2,4.9l4.5,15.3l9.4-12.9
											l15.9,0.4l-9.4-12.9l5.3-15l-15.2,4.9L176.1,518.1z"/>
										<path id="path1063" inkscape:connector-curvature="0" class="st11" d="M480.6,270.5l5.7-5l-0.9-7.5l6.5,3.9l6.9-3.1
											l-1.7,7.3l5.1,5.6l-7.5,0.7L491,279L488,272L480.6,270.5z M481.8,252.4l1.4,12l-9.1,7.9l11.8,2.4l4.7,11.1l5.9-10.5
											l12-1.1l-8.1-8.9l2.7-11.7l-11,5L481.8,252.4z"/>
										<path id="path1065" inkscape:connector-curvature="0" class="st11" d="M444.3,87.6l9.3-2.7l3-9.2l5.5,8l9.7,0l-5.9,7.7
											l3,9.2l-9.2-3.3l-7.9,5.7l0.3-9.7L444.3,87.6z M455.7,68.9l-4.4,13.5l-13.6,4l11.5,8.4l-0.4,14.2l11.5-8.3l13.4,4.8
											l-4.4-13.5l8.7-11.3l-14.2,0L455.7,68.9z"/>
										<path id="path1067" inkscape:connector-curvature="0" class="st11" d="M171.7,268l6.7-5.5l0.3,8.7l7.3,4.7l-8.2,3
											l-2.2,8.4l-5.3-6.9l-8.7,0.5l4.9-7.2l-3.2-8.1L171.7,268z M181.3,256.4l-10.2,8.4l-12.7-3.7l4.8,12.3l-7.4,10.9l13.2-0.8
											L177,294l3.4-12.8l12.4-4.5l-11.1-7.1L181.3,256.4z"/>
										<path id="path1069" inkscape:connector-curvature="0" class="st11" d="M194.2,198l5.8-8.1l2.9,9.6l9.5,3l-8.2,5.7l0.1,10
											l-8-6l-9.5,3.1l3.3-9.4l-5.9-8.1L194.2,198z M201.2,183.2l-8.5,11.8l-14.5-0.3l8.6,11.7l-4.8,13.7l13.8-4.5l11.6,8.8
											l-0.1-14.5l11.9-8.3l-13.8-4.4L201.2,183.2z"/>
										<path id="path1071" inkscape:connector-curvature="0" class="st11" d="M573.4,582.6l4-1.1l1.3-4l2.3,3.5l4.2,0.1l-2.6,3.3
											l1.2,4l-3.9-1.4l-3.4,2.4l0.2-4.2L573.4,582.6z M577.8,570.7L575,579l-8.4,2.4l7,5.2l-0.3,8.7l7.1-5l8.2,3l-2.6-8.3
											l5.4-6.8l-8.7-0.1L577.8,570.7z"/>
										<path id="path1073" inkscape:connector-curvature="0" class="st11" d="M388.3,179.6l9.7-6.6l-0.7,11.8l9.3,7.2l-11.4,3
											l-4,11.1l-6.3-9.9l-11.8-0.4l7.5-9.1l-3.3-11.3L388.3,179.6z M401.4,167.2l-13.5,9.1l-15.2-5.9l4.5,15.6l-10.3,12.6
											l16.3,0.5l8.8,13.7l5.5-15.3l15.7-4.1l-12.8-10L401.4,167.2z"/>
										<path id="path1075" inkscape:connector-curvature="0" class="st11" d="M107.3,262.1l3.7-4.4l1.3,5.7l5.4,2.2l-5,2.9
											l-0.4,5.8l-4.3-3.9l-5.6,1.4l2.3-5.3l-3.1-4.9L107.3,262.1z M112.7,251.1l-6.6,7.9l-10.3-1l5.5,8.8l-4.1,9.5l10-2.5
											l7.7,6.8l0.7-10.3l8.9-5.2l-9.6-3.9L112.7,251.1z"/>
										<path id="path1077" inkscape:connector-curvature="0" class="st11" d="M14.2,447.7l6.4-1.9l2.1-6.4l3.8,5.5l6.7,0
											l-4.1,5.3l2.1,6.4l-6.3-2.2l-5.4,3.9l0.2-6.7L14.2,447.7z M21.6,432.8l-3.4,10.6l-10.7,3.2l9.1,6.6l-0.3,11.2l9-6.6
											l10.6,3.7l-3.5-10.6l6.8-8.9L28,442L21.6,432.8z"/>
										<path id="path1079" inkscape:connector-curvature="0" class="st11" d="M146,201.5l5.2-1l2.1-4.9l2.6,4.6l5.3,0.5l-3.6,3.9
											l1.1,5.2l-4.8-2.3l-4.6,2.7l0.7-5.3L146,201.5z M153.1,188.9l-3.9,9l-9.6,1.8l7.3,6.5l-1.2,9.7l8.5-4.9l8.9,4.2l-2.1-9.6
											l6.7-7.1l-9.8-1L153.1,188.9z"/>
										<path id="path1081" inkscape:connector-curvature="0" class="st12" d="M395.5,230.9c-0.1,0-0.1,0-0.2,0
											c-0.1,0-0.3-0.1-0.5-0.3c-0.4-0.6-0.2-1.4,0.4-1.8c0.3-0.2,0.7-0.3,1-0.3c-0.5,0.5-0.7,1.3-0.3,1.9
											c0.1,0.1,0.1,0.3-0.1,0.4C395.8,230.9,395.6,230.9,395.5,230.9 M397.1,220.6c-1.9,0-3.8,0.5-5.5,1.6
											c-3.9,2.5-5,7.7-2.4,11.6c2.1,3.2,6.4,4.1,9.7,2c2.7-1.8,3.5-5.4,1.7-8.1c-1.5-2.3-4.6-3-6.9-1.5c-2,1.3-2.6,4-1.3,6
											c0.8,1.2,2.2,1.8,3.6,1.7c-1.6,0.4-3.3-0.3-4.2-1.7c-1.6-2.5-0.9-5.8,1.6-7.4c3.3-2.1,7.7-1.2,9.8,2.1
											c1.3,2.1,1.8,4.5,1.3,6.9c-0.5,2.4-1.9,4.5-4,5.8c-2.7,1.7-5.8,2.3-8.9,1.7c-3.1-0.7-5.8-2.5-7.5-5.1
											c-0.5-0.7-1.4-0.9-2.1-0.4c-0.7,0.5-0.9,1.4-0.4,2.1c2.2,3.3,5.5,5.6,9.4,6.4c3.9,0.8,7.9,0.1,11.2-2.1
											c2.7-1.8,4.6-4.5,5.3-7.7c0.7-3.2,0.1-6.5-1.7-9.2C403.6,222.2,400.4,220.6,397.1,220.6"/>
										<path id="path1083" inkscape:connector-curvature="0" class="st12" d="M588.4,300.3c-0.1-0.6-0.5-1.2-1.2-1.3
											c-0.1,0-0.1,0-0.1-0.1c0,0,0-0.1,0-0.2c0-0.2,0.2-0.3,0.3-0.4c0.1-0.1,0.3-0.1,0.5-0.1c0.3,0.1,0.6,0.2,0.7,0.5
											c0.2,0.3,0.2,0.6,0.2,0.9C588.7,299.9,588.6,300.1,588.4,300.3 M589.1,283.9c-2.8,0-5.5,0.8-7.9,2.4
											c-3.2,2.1-5.3,5.3-6,9.1c-1.2,6.3,2.9,12.5,9.2,13.7c2.5,0.5,5.1,0,7.2-1.5c2.1-1.4,3.6-3.6,4.1-6.1c0.4-2.1,0-4.2-1.2-6
											c-1.2-1.8-3-3-5.1-3.4c-3.6-0.7-7.2,1.7-7.9,5.3c-0.3,1.5,0,3,0.9,4.2c0.8,1.3,2.1,2.1,3.6,2.4c1.3,0.2,2.6,0,3.6-0.7
											c1.1-0.7,1.8-1.8,2-3.1c0.4-2.3-1-4.4-3.3-4.9c-1-0.2-1.9,0-2.7,0.5c0.8-0.7,2-1,3.1-0.8c1.3,0.3,2.4,1,3.2,2.1
											c0.7,1.1,1,2.4,0.8,3.8c-0.3,1.7-1.3,3.2-2.8,4.2c-1.5,1-3.2,1.3-5,1c-4.7-0.9-7.8-5.5-6.8-10.2c0.6-2.9,2.3-5.5,4.7-7.1
											c2.5-1.7,5.5-2.3,8.4-1.7c0.8,0.2,1.6-0.4,1.8-1.2c0.2-0.8-0.4-1.6-1.2-1.8C591,284,590,283.9,589.1,283.9"/>
										<path id="path1085" inkscape:connector-curvature="0" class="st12" d="M317.5,302.3c-0.6,0-1.2-0.3-1.6-0.8
											c-0.6-0.8-0.7-1.8-0.4-2.6c0,0.3,0.1,0.5,0.3,0.8c0.5,0.7,1.4,0.8,2.1,0.3c0.3-0.2,0.8-0.2,1,0.2c0.2,0.3,0.3,0.6,0.2,0.9
											c-0.1,0.3-0.2,0.6-0.5,0.8C318.3,302.2,317.9,302.3,317.5,302.3 M320,286.4c-3,0-6,0.9-8.6,2.8
											c-5.4,3.9-6.6,11.4-2.7,16.8c1.6,2.1,3.8,3.6,6.5,4c2.6,0.4,5.2-0.2,7.4-1.8c1.8-1.3,3-3.2,3.3-5.4
											c0.3-2.2-0.2-4.3-1.5-6.1c-2.2-3.1-6.5-3.8-9.6-1.5c-2.6,1.9-3.2,5.5-1.3,8.1c1.6,2.2,4.7,2.7,6.9,1.1
											c0.9-0.7,1.5-1.7,1.7-2.8c0.2-1.1-0.1-2.2-0.8-3.2c-0.8-1-2-1.6-3.2-1.5c0.4-0.1,0.8-0.1,1.3,0c1,0.2,1.9,0.7,2.5,1.6
											c0.8,1.1,1.1,2.5,0.9,3.9s-1,2.6-2.1,3.4c-1.5,1.1-3.3,1.5-5.1,1.2c-1.8-0.3-3.4-1.3-4.5-2.8c-1.4-2-2-4.3-1.6-6.7
											c0.4-2.4,1.7-4.5,3.6-5.9c5.2-3.8,12.5-2.6,16.3,2.6c2.3,3.2,3.3,7.2,2.6,11.1c-0.6,3.9-2.8,7.4-6,9.7
											c-0.7,0.5-0.8,1.4-0.3,2.1c0.5,0.7,1.4,0.8,2.1,0.3c3.9-2.8,6.4-7,7.2-11.7c0.8-4.7-0.4-9.5-3.2-13.4
											C329,288.5,324.5,286.4,320,286.4"/>
										<path id="path1087" inkscape:connector-curvature="0" class="st12" d="M485.9,121.8c0,0-0.1,0-0.1,0
											c-0.8-0.1-1.3-0.8-1.2-1.6c0.1-0.6,0.4-1.1,0.8-1.4c0.5-0.3,1-0.5,1.6-0.4c0.8,0.1,1.5,0.5,2,1.2c0.2,0.3,0.4,0.6,0.5,1
											c-0.2-0.4-0.6-0.7-1.1-0.8c-0.8-0.1-1.6,0.5-1.7,1.3C486.7,121.5,486.3,121.8,485.9,121.8 M487.4,109.6
											c-2.3,0-4.4,0.7-6.3,2.1c-2.2,1.7-3.6,4.1-4,6.9c-0.3,2.3,0.3,4.5,1.7,6.4c1.4,1.8,3.4,3,5.7,3.3c1.9,0.3,3.8-0.2,5.3-1.4
											c1.5-1.2,2.5-2.9,2.8-4.8c0.2-1.6-0.2-3.2-1.2-4.5c-1-1.3-2.4-2.1-4-2.3c-1.4-0.2-2.7,0.2-3.8,1c-1.1,0.8-1.8,2-2,3.4
											c-0.2,1.2,0.1,2.3,0.9,3.3c0.7,0.9,1.8,1.5,2.9,1.7c1,0.1,2-0.1,2.8-0.7c0.6-0.5,1.1-1.1,1.3-1.9c-0.2,1-0.8,1.8-1.6,2.4
											c-0.9,0.7-2,1-3.1,0.8c-1.5-0.2-2.8-1-3.7-2.2s-1.3-2.7-1.1-4.2c0.3-2,1.3-3.7,2.9-4.9c1.6-1.2,3.5-1.7,5.5-1.4
											c2.5,0.3,4.8,1.7,6.4,3.7c1.6,2,2.2,4.6,1.9,7.1c-0.4,3.3-2.1,6.2-4.8,8.2c-2.6,2-5.9,2.9-9.2,2.4
											c-4.2-0.6-7.9-2.8-10.5-6.1c-2.6-3.4-3.7-7.6-3.1-11.8c0.1-0.8-0.5-1.6-1.3-1.7c-0.8-0.1-1.6,0.5-1.7,1.3
											c-0.7,5,0.6,10,3.7,14c3.1,4,7.5,6.6,12.5,7.3c4.1,0.6,8.1-0.5,11.4-3c3.3-2.5,5.4-6.1,5.9-10.2c0.5-3.3-0.4-6.7-2.5-9.3
											c-2-2.7-5-4.4-8.3-4.9C488.3,109.7,487.9,109.6,487.4,109.6"/>
										<path id="path1089" inkscape:connector-curvature="0" class="st12" d="M269.9,40.2c-0.5,0-1,0.2-1.2,0.7
											c-6,9-3.6,21.2,5.4,27.2c7.3,4.9,17.3,2.9,22.2-4.4c1.9-2.9,2.6-6.4,2-9.8c-0.7-3.4-2.7-6.4-5.6-8.3
											c-2.4-1.6-5.3-2.2-8.1-1.6c-2.8,0.6-5.3,2.2-6.9,4.6c-1.3,2-1.8,4.4-1.3,6.7c0.5,2.3,1.8,4.4,3.8,5.7
											c3.4,2.3,8,1.4,10.3-2c0.9-1.4,1.3-3.1,0.9-4.7c-0.3-1.6-1.3-3.1-2.7-4c-1.2-0.8-2.6-1.1-4-0.8c-1.4,0.3-2.6,1.1-3.4,2.3
											c-0.7,1-0.9,2.2-0.7,3.4c0.2,1.2,0.9,2.2,1.9,2.9c0.9,0.6,1.9,0.8,3,0.6c1-0.2,1.9-0.8,2.5-1.7c0.5-0.7,0.3-1.6-0.4-2.1
											c-0.7-0.5-1.6-0.3-2.1,0.4c-0.1,0.2-0.3,0.3-0.6,0.4c-0.2,0-0.5,0-0.7-0.1c-0.3-0.2-0.6-0.6-0.7-1c-0.1-0.4,0-0.8,0.2-1.2
											c0.7-1.1,2.1-1.3,3.2-0.6c0.7,0.5,1.2,1.2,1.4,2.1c0.2,0.9,0,1.7-0.5,2.4c-1.4,2-4.1,2.6-6.2,1.2
											c-1.3-0.9-2.2-2.2-2.5-3.8c-0.3-1.6,0-3.1,0.9-4.4c1.2-1.7,2.9-2.9,5-3.3c2-0.4,4.1,0,5.8,1.2c2.2,1.5,3.8,3.8,4.3,6.4
											c0.5,2.6,0,5.3-1.5,7.6c-4,6-12.1,7.6-18,3.6c-7.6-5.1-9.7-15.4-4.6-23.1c0.5-0.7,0.3-1.6-0.4-2.1
											C270.5,40.3,270.2,40.2,269.9,40.2"/>
										<path id="path1091" inkscape:connector-curvature="0" class="st12" d="M107.9,142c-0.6,0-1.1-0.3-1.5-0.8
											c-0.3-0.6-0.4-1.2-0.3-1.9c0,0,0,0,0,0c0,0.1,0.1,0.2,0.2,0.4c0.4,0.7,1.3,1,2.1,0.5c0.2-0.1,0.3-0.1,0.4-0.1
											c0.1,0,0.2,0.1,0.3,0.2c0.3,0.5,0.1,1.1-0.4,1.4C108.5,141.9,108.2,142,107.9,142 M110.1,127.4c-2.4,0-4.8,0.6-6.9,1.9
											c-2.6,1.5-4.4,4-5.2,6.9c-0.8,2.9-0.3,5.9,1.2,8.5c1.3,2.1,3.3,3.7,5.7,4.3c2.4,0.6,4.9,0.3,7-1c1.8-1,3-2.7,3.6-4.7
											c0.5-2,0.2-4.1-0.8-5.9c-0.9-1.5-2.3-2.6-4-3c-1.7-0.4-3.4-0.2-4.9,0.7c-1.3,0.7-2.2,1.9-2.5,3.4
											c-0.4,1.4-0.2,2.9,0.6,4.2c1.3,2.2,4.2,3,6.4,1.7c1.9-1.1,2.6-3.6,1.4-5.6c-0.3-0.5-0.7-0.9-1.2-1.2
											c0.7,0.3,1.2,0.8,1.6,1.4c1.3,2.3,0.6,5.2-1.7,6.5c-1.4,0.9-3.1,1.1-4.8,0.7c-1.6-0.4-3-1.5-3.8-2.9
											c-1.1-1.9-1.4-4.1-0.9-6.3c0.6-2.1,1.9-3.9,3.8-5c2.5-1.4,5.3-1.9,8.1-1.1c2.8,0.7,5.1,2.5,6.5,4.9
											c3.8,6.5,1.7,15-4.9,18.8c-0.7,0.4-1,1.3-0.5,2.1c0.4,0.7,1.3,1,2.1,0.5c7.9-4.7,10.6-15,5.9-22.9
											c-1.9-3.1-4.8-5.4-8.4-6.3C112.4,127.6,111.2,127.4,110.1,127.4"/>
										<path id="path1093" inkscape:connector-curvature="0" class="st12" d="M296.2,451c-4.3,0-8.6,1.2-12.4,3.5
											c-5.4,3.3-9.2,8.6-10.7,14.7c-1.2,5-0.4,10.2,2.3,14.6c2.7,4.4,7,7.5,12,8.7c8.5,2,17-3.2,19-11.7
											c0.8-3.4,0.3-6.8-1.5-9.8c-1.8-2.9-4.6-5-8-5.8c-2.8-0.7-5.6-0.2-8,1.3c-2.4,1.5-4.1,3.8-4.8,6.6
											c-1.1,4.7,1.8,9.5,6.5,10.6c3.9,0.9,7.9-1.5,8.9-5.4c0.4-1.6,0.1-3.3-0.7-4.7c-0.9-1.4-2.2-2.4-3.8-2.8
											c-1.4-0.3-2.8-0.1-4,0.6c-1.2,0.7-2,1.9-2.4,3.2c-0.3,1.2-0.1,2.4,0.5,3.4c0.6,1,1.6,1.7,2.8,2c0.8,0.2,1.6-0.3,1.8-1.1
											c0.2-0.8-0.3-1.6-1.1-1.8c-0.4-0.1-0.7-0.3-0.9-0.7s-0.3-0.7-0.2-1.1c0.1-0.6,0.5-1.1,1-1.4c0.5-0.3,1.1-0.4,1.7-0.3
											c1.7,0.4,2.8,2.1,2.3,3.8c-0.3,1.1-1,2.1-2,2.7c-1,0.6-2.2,0.8-3.3,0.5c-3.1-0.7-5-3.9-4.3-7c0.5-2,1.7-3.7,3.4-4.7
											c1.7-1.1,3.8-1.4,5.8-0.9c2.6,0.6,4.8,2.2,6.1,4.5c1.4,2.3,1.8,4.9,1.2,7.5c-1.6,6.8-8.6,11.1-15.4,9.4
											c-8.8-2.1-14.2-10.9-12.1-19.7c1.3-5.4,4.6-10,9.4-12.9c4.7-2.9,10.3-3.8,15.7-2.5c0.8,0.2,1.6-0.3,1.8-1.1
											s-0.3-1.6-1.1-1.8C299.9,451.3,298.1,451,296.2,451"/>
										<path id="path1095" inkscape:connector-curvature="0" class="st12" d="M234.6,381.8c-3.5,0-6.9,1.3-9.6,3.6
											c-2.4,2.1-3.9,5.1-4.2,8.3c-0.2,3.2,0.8,6.4,2.9,8.8c1.7,2,4.2,3.2,6.8,3.4c2.7,0.2,5.2-0.7,7.3-2.4
											c3.5-3,3.8-8.2,0.9-11.7c-1.2-1.4-2.9-2.2-4.7-2.4c-1.8-0.1-3.6,0.5-5,1.7c-2.4,2.1-2.7,5.8-0.6,8.2
											c1.8,2.1,4.9,2.3,7,0.5c1.8-1.5,2-4.3,0.4-6c-0.5-0.6-1.5-0.7-2.1-0.2c-0.6,0.5-0.7,1.5-0.2,2.1c0.2,0.3,0.3,0.6,0.3,0.9
											c0,0.3-0.2,0.7-0.4,0.9c-0.8,0.7-2.1,0.6-2.8-0.2c-1-1.2-0.9-3,0.3-4c0.8-0.7,1.8-1,2.9-0.9c1,0.1,2,0.6,2.7,1.3
											c1.9,2.2,1.7,5.6-0.5,7.5c-2.9,2.5-7.3,2.2-9.9-0.7c-1.6-1.8-2.4-4.2-2.2-6.6s1.3-4.6,3.1-6.2c2.4-2.1,5.4-3.1,8.5-2.8
											c3.1,0.2,6,1.7,8,4c5.4,6.3,4.7,15.8-1.5,21.3c-8,6.9-20.2,6-27.1-2c-0.5-0.6-1.5-0.7-2.1-0.2c-0.6,0.5-0.7,1.5-0.2,2.1
											c8,9.3,22.1,10.3,31.3,2.3c7.5-6.5,8.4-18,1.9-25.5c-2.6-3-6.2-4.8-10.1-5.1C235.3,381.8,234.9,381.8,234.6,381.8"/>
										<path id="path1097" inkscape:connector-curvature="0" class="st12" d="M444.6,587.4c-0.1-0.4-0.3-0.8-0.7-1
											c0.1-0.1,0.3-0.1,0.4,0C444.7,586.6,444.8,587,444.6,587.4 M445.6,574.2c-4,0-7.9,1.9-10.2,5.5c-1.5,2.2-2,4.9-1.5,7.6
											c0.5,2.6,2.1,4.9,4.3,6.4c1.9,1.2,4.1,1.7,6.3,1.2c2.2-0.4,4.1-1.7,5.3-3.6c1-1.6,1.4-3.4,1-5.3c-0.4-1.8-1.4-3.4-3-4.4
											c-2.7-1.8-6.4-1-8.2,1.7c-1.5,2.3-0.9,5.4,1.4,7c2,1.3,4.7,0.8,6-1.2c0.8-1.3,0.8-2.8,0.1-4c0.4,0.5,0.6,1,0.8,1.7
											c0.2,1,0,2.1-0.6,3c-0.8,1.2-2,2-3.4,2.3c-1.4,0.3-2.8,0-4-0.8c-1.6-1-2.7-2.6-3-4.5c-0.4-1.9,0-3.8,1-5.3
											c2.8-4.3,8.6-5.4,12.8-2.6c0.7,0.5,1.6,0.3,2.1-0.4c0.5-0.7,0.3-1.6-0.4-2.1C450.2,574.9,447.9,574.2,445.6,574.2"/>
										<path id="path1099" inkscape:connector-curvature="0" class="st12" d="M226.5,33c-0.1,0-0.1,0-0.2,0c-3.6,0-6.9,1.5-9.4,4
											c-2.5,2.6-3.8,5.9-3.8,9.5c0.1,6.1,5.1,11,11.2,10.9c5-0.1,9.1-4.2,9-9.2c0-2-0.8-3.9-2.3-5.3c-1.5-1.4-3.4-2.2-5.4-2.2
											c-3.5,0-6.3,2.9-6.3,6.5c0,3,2.5,5.3,5.4,5.3h0.1c2.5,0,4.6-2.1,4.6-4.7c0-0.8-0.7-1.5-1.5-1.5c-0.8,0-1.5,0.7-1.5,1.5
											c0,0.9-0.7,1.6-1.6,1.6h0c-1.3,0-2.4-1.1-2.4-2.4c0-1.9,1.5-3.4,3.3-3.4c1.2,0,2.4,0.4,3.3,1.3c0.9,0.9,1.4,2,1.4,3.2
											c0,3.4-2.7,6.1-6,6.2c0,0-0.1,0-0.1,0c-4.4,0-8-3.5-8-7.9c0-2.8,1-5.4,2.9-7.4c1.9-2,4.5-3.1,7.3-3.1c0.1,0,0.1,0,0.2,0
											c7.3,0,13.3,5.9,13.4,13.2c0.1,4.6-1.7,8.9-4.8,12.1c-3.2,3.3-7.4,5.1-12,5.2c-5.8,0.1-11.3-2.1-15.4-6.2
											c-4.2-4-6.5-9.5-6.6-15.3c0-0.8-0.7-1.5-1.5-1.5h0c-0.8,0-1.5,0.7-1.5,1.5c0.1,6.6,2.7,12.8,7.5,17.4
											c4.7,4.6,11,7.1,17.6,7c5.4-0.1,10.4-2.2,14.1-6.1c3.7-3.8,5.8-8.9,5.7-14.3C242.8,40.2,235.5,33,226.5,33"/>
										<path id="path1101" inkscape:connector-curvature="0" class="st12" d="M339.6,343.1c-0.2,0-0.4-0.1-0.6-0.2
											c-1-0.5-1.4-1.8-0.8-2.8c0.4-0.7,1-1.2,1.7-1.4c0.3-0.1,0.5-0.1,0.8-0.1c-0.3,0.1-0.6,0.4-0.8,0.7c-0.4,0.7-0.1,1.6,0.6,2
											c0.2,0.1,0.3,0.3,0.4,0.5c0.1,0.2,0,0.4-0.1,0.6C340.5,342.8,340.1,343.1,339.6,343.1 M341.7,329c-1.2,0-2.4,0.2-3.6,0.5
											c-3.1,1-5.7,3.1-7.3,6c-1.3,2.4-1.6,5.1-0.8,7.7c0.8,2.6,2.5,4.7,4.9,6c4.1,2.2,9.2,0.6,11.4-3.4c1.8-3.4,0.5-7.7-2.9-9.5
											c-1.4-0.7-3-0.9-4.5-0.5c-1.5,0.5-2.8,1.5-3.5,2.9c-1.3,2.5-0.4,5.5,2.1,6.8c1,0.5,2.2,0.7,3.3,0.3c1.1-0.3,2-1.1,2.6-2.1
											c0.5-0.9,0.6-1.9,0.3-2.9c-0.1-0.5-0.4-0.9-0.7-1.3c1.2,1.2,1.6,3.2,0.7,4.8c-1.4,2.6-4.7,3.6-7.3,2.2
											c-1.7-0.9-2.9-2.4-3.5-4.2c-0.6-1.8-0.4-3.8,0.5-5.4c1.2-2.2,3.1-3.8,5.5-4.5c2.4-0.7,4.9-0.5,7.1,0.7
											c5.8,3.1,8,10.4,4.9,16.3c-4,7.5-13.4,10.3-20.8,6.3c-0.7-0.4-1.6-0.1-2,0.6s-0.1,1.6,0.6,2c8.9,4.8,20.1,1.4,24.9-7.5
											c3.9-7.3,1.2-16.4-6.1-20.3C345.7,329.5,343.7,329,341.7,329"/>
										<path id="path1103" inkscape:connector-curvature="0" class="st12" d="M346.9,59.8c-0.2,0-0.3-0.1-0.4-0.3
											c-0.1-0.5,0.2-0.9,0.7-1c0,0,0.1,0,0.1,0C347,58.8,346.8,59.3,346.9,59.8C346.9,59.8,346.9,59.8,346.9,59.8 M347.9,51.7
											c-0.5,0-0.9,0-1.4,0.1c-3.9,0.6-6.6,4.3-6,8.3c0.5,3.3,3.6,5.6,6.9,5c1.4-0.2,2.6-1,3.4-2.1c0.8-1.1,1.1-2.5,0.9-3.8
											c-0.4-2.4-2.7-4-5.1-3.7c-1.9,0.3-3.2,1.9-3.2,3.8c-0.2-2.2,1.3-4.2,3.5-4.5c1.5-0.2,3,0.1,4.2,1c1.2,0.9,2,2.2,2.3,3.7
											c0.6,4-2.1,7.8-6.1,8.5c-5.3,0.8-10.2-2.7-11-8c-0.1-0.8-0.9-1.4-1.7-1.2c-0.8,0.1-1.4,0.9-1.2,1.7
											c1.1,6.9,7.6,11.6,14.5,10.5c2.7-0.4,5.2-1.9,6.8-4.2c1.6-2.3,2.3-5,1.8-7.8c-0.4-2.3-1.6-4.3-3.5-5.6
											C351.5,52.3,349.7,51.7,347.9,51.7"/>
										<path id="path1105" inkscape:connector-curvature="0" class="st12" d="M119.1,78.7c-1.6,0-3.2,0.3-4.7,0.8
											c-5.9,2.1-8.9,8.7-6.8,14.5c1.8,4.9,7.2,7.4,12,5.6c2-0.7,3.5-2.1,4.4-4c0.9-1.9,1-4,0.3-6c-0.6-1.6-1.8-3-3.4-3.7
											c-1.6-0.7-3.4-0.8-5-0.2c-1.4,0.5-2.5,1.5-3.1,2.9c-0.6,1.3-0.7,2.8-0.2,4.2c0.4,1.2,1.3,2.1,2.4,2.7
											c1.1,0.5,2.4,0.6,3.6,0.2c2.1-0.8,3.2-3.1,2.4-5.2c-0.3-0.8-1.1-1.2-1.9-0.9c-0.8,0.3-1.2,1.1-0.9,1.9
											c0.1,0.3,0.1,0.6,0,0.8c-0.1,0.3-0.3,0.5-0.6,0.6c-0.4,0.2-0.9,0.1-1.3-0.1c-0.4-0.2-0.7-0.5-0.9-1
											c-0.2-0.6-0.2-1.3,0.1-1.9c0.3-0.6,0.8-1.1,1.4-1.3c1.8-0.7,3.9,0.3,4.5,2.1c0.4,1.2,0.4,2.5-0.2,3.7
											c-0.5,1.2-1.5,2-2.7,2.5c-1.6,0.6-3.3,0.5-4.9-0.2c-1.5-0.7-2.7-2-3.3-3.6c-0.8-2.1-0.7-4.4,0.3-6.4
											c0.9-2,2.6-3.6,4.7-4.3c2.7-1,5.7-0.9,8.3,0.4c2.6,1.2,4.6,3.4,5.6,6.1c1.3,3.5,1.1,7.3-0.5,10.6
											c-1.6,3.4-4.4,5.9-7.8,7.2c-9.2,3.3-19.4-1.4-22.7-10.6c-0.3-0.8-1.1-1.2-1.9-0.9c-0.8,0.3-1.2,1.1-0.9,1.9
											c3.9,10.8,15.8,16.3,26.6,12.4c4.2-1.5,7.6-4.6,9.5-8.7c1.9-4.1,2.1-8.7,0.6-12.9c-1.3-3.5-3.8-6.2-7.1-7.8
											C123.1,79.2,121.1,78.7,119.1,78.7"/>
										<path id="path1107" inkscape:connector-curvature="0" class="st12" d="M215.4,86.8c-0.1,0-0.2-0.1-0.2-0.1
											c0-0.1-0.1-0.1-0.1-0.3c0-0.2,0.1-0.4,0.3-0.6c0.2-0.1,0.4-0.2,0.6-0.2c0,0,0.1,0,0.1,0C215.8,85.9,215.5,86.3,215.4,86.8
											 M216.4,79c-3.6,0-6.7,2.7-7.1,6.3c-0.2,1.6,0.3,3.2,1.3,4.5c1,1.3,2.4,2.1,4,2.3c1.4,0.2,2.7-0.2,3.8-1.1
											c1.1-0.9,1.8-2.1,1.9-3.4c0.1-1.2-0.2-2.3-0.9-3.2c-0.7-0.9-1.8-1.5-2.9-1.6c-1-0.1-2,0.2-2.8,0.8c-0.6,0.5-1,1.1-1.3,1.8
											c0.5-2.1,2.4-3.5,4.6-3.2c3.1,0.4,5.3,3.1,4.9,6.2c-0.5,4-4.1,6.9-8.2,6.5c-5.3-0.6-9-5.4-8.4-10.6
											c0.1-0.8-0.5-1.6-1.3-1.7c-0.8-0.1-1.6,0.5-1.7,1.3c-0.8,6.9,4.1,13.2,11,14c5.7,0.7,10.8-3.4,11.5-9.1
											c0.6-4.7-2.8-9-7.5-9.5C217,79,216.7,79,216.4,79"/>
										<path id="path1109" inkscape:connector-curvature="0" class="st12" d="M63.2,302.5c-8.2,0-15.7,5.6-17.7,14
											c-0.9,3.9-0.3,7.9,1.8,11.3c2.1,3.4,5.3,5.8,9.2,6.7c3.2,0.8,6.5,0.2,9.2-1.5c2.8-1.7,4.7-4.4,5.5-7.6
											c1.3-5.4-2-10.9-7.4-12.2c-4.5-1.1-9,1.7-10.1,6.2c-0.9,3.7,1.4,7.5,5.2,8.4c3.2,0.8,6.3-1.2,7.1-4.3
											c0.3-1.3,0.1-2.6-0.6-3.8s-1.8-1.9-3.1-2.3c-1.1-0.3-2.3-0.1-3.3,0.5c-1,0.6-1.7,1.5-1.9,2.7c-0.2,0.8,0.3,1.6,1.1,1.8
											c0.8,0.2,1.6-0.3,1.8-1.1c0.1-0.3,0.3-0.6,0.6-0.8c0.3-0.2,0.6-0.2,1-0.2c0.5,0.1,1,0.4,1.2,0.9c0.3,0.5,0.4,1,0.2,1.5
											c-0.4,1.5-1.9,2.5-3.5,2.1c-2.1-0.5-3.5-2.7-2.9-4.8c0.7-2.9,3.6-4.6,6.5-4c3.8,0.9,6.1,4.7,5.2,8.5
											c-0.6,2.4-2.1,4.4-4.2,5.7c-2.1,1.3-4.6,1.7-7,1.1c-3.1-0.7-5.7-2.6-7.4-5.4c-1.7-2.7-2.2-5.9-1.4-9
											c2-8.2,10.2-13.2,18.4-11.2c10.4,2.5,16.8,13,14.3,23.5c-0.2,0.8,0.3,1.6,1.1,1.8c0.8,0.2,1.6-0.3,1.8-1.1
											c2.9-12-4.5-24.2-16.5-27.1C66,302.7,64.6,302.5,63.2,302.5"/>
										<path id="path1111" inkscape:connector-curvature="0" class="st13" d="M496.4,43.2c-2.8,0-6.1,3-11,7.5
											c-3,2.8-6.8,6.2-11.3,9.7c-0.7,0.5-0.8,1.4-0.3,2.1c0.5,0.7,1.4,0.8,2.1,0.3c4.6-3.5,8.4-7,11.4-9.8
											c4-3.7,7.8-7.2,9.3-6.6c0.9,0.4,2.3,2.7,3.3,12c0.9,7.8,0.2,16.1-0.4,22.7c-0.8,9-1.4,15.6,2.2,17.7
											c2.5,1.5,6.3,0.3,12.4-3.8c22.1-15,15.9-27.3,15.6-27.8c-0.4-0.7-1.3-1-2-0.6c-0.7,0.4-1,1.3-0.6,2
											c0.2,0.4,5.1,10.6-14.7,23.9c-6.2,4.2-8.4,4.1-9.2,3.7c-1.9-1.1-1.3-8.1-0.7-14.8c0.6-6.8,1.4-15.2,0.4-23.3
											c-1.1-9.5-2.5-13.4-5.3-14.4C497.3,43.3,496.9,43.2,496.4,43.2"/>
										<path id="path1113" inkscape:connector-curvature="0" class="st13" d="M230.9,147.8c-0.7,0-1.4,0.5-1.5,1.3
											c-0.1,0.8,0.4,1.6,1.3,1.7c0.3,0.1,8.9,1.8,8.1,20.5c-0.3,6.2-1.5,7.2-1.8,7.3c-1.5,0.6-5.8-3.2-9.5-6.6
											c-4.1-3.6-9.1-8.2-14.8-11.5c-6.7-3.9-10-4.9-12.1-3.5c-2.4,1.6-2.1,5.4-1.4,11.7c0.3,3.2,0.7,7.3,0.8,11.8
											c0,0.8,0.7,1.5,1.5,1.5c0.8,0,1.5-0.7,1.5-1.5c-0.1-4.6-0.5-8.8-0.8-12.1c-0.4-3.9-0.8-8.3,0.1-8.8
											c0.4-0.3,2.1-0.4,8.9,3.6c5.4,3.2,10.1,7.4,14.3,11.1c5.5,4.9,9.4,8.5,12.7,7.1c2.3-1,3.4-3.9,3.7-10
											c1-21.6-10.1-23.5-10.6-23.6C231,147.8,231,147.8,230.9,147.8"/>
										<path id="path1115" inkscape:connector-curvature="0" class="st13" d="M474.7,344.7c-0.8,0-1.4,0.6-1.5,1.3
											c-0.1,0.8,0.5,1.6,1.3,1.7c0.4,0.1,9.5,1.5,9.3,21.2c0,6.4-1.2,7.6-1.7,7.8c-1.6,0.7-6.2-3.1-10.3-6.5
											c-4.4-3.6-9.8-8.2-15.9-11.4c-7.2-3.8-10.6-4.7-12.7-3.2c-2.5,1.7-1.9,5.7-1,12.2c0.5,3.4,1.1,7.6,1.3,12.3
											c0,0.8,0.8,1.5,1.6,1.4c0.8,0,1.5-0.8,1.4-1.6c-0.3-4.9-0.9-9.1-1.4-12.6c-0.6-4.3-1.2-8.7-0.3-9.3
											c0.5-0.4,2.5-0.4,9.6,3.4c5.8,3.1,10.9,7.3,15.4,11c5.9,4.9,10.2,8.5,13.5,6.9c2.3-1.1,3.4-4.2,3.4-10.5
											c0.2-22.6-11.5-24.1-12-24.2C474.8,344.7,474.7,344.7,474.7,344.7"/>
										<path id="path1117" inkscape:connector-curvature="0" class="st13" d="M582.4,45.4c-19.7,0-21,10.3-21.1,10.7
											c-0.1,0.8,0.5,1.6,1.3,1.7c0.8,0.1,1.6-0.5,1.7-1.3c0-0.3,1.3-8,18.1-8h0.1c5.7,0,6.5,1.1,6.6,1.3
											c0.6,1.3-2.8,5.4-5.6,8.8c-3.1,3.8-7.1,8.6-9.8,13.9c-3.3,6.4-4.1,9.3-2.7,11.3c1.6,2.2,5.1,1.7,10.8,0.9
											c2.9-0.4,6.6-1,10.7-1.2c0.8-0.1,1.5-0.8,1.4-1.6c-0.1-0.8-0.8-1.5-1.6-1.4c-4.2,0.3-8,0.8-10.9,1.2
											c-3.3,0.5-7.4,1.1-7.9,0.4c-0.2-0.3-0.5-1.6,2.9-8.1c2.6-5,6.3-9.5,9.5-13.4c4.4-5.4,7.4-9,6-12c-1-2.1-3.8-3-9.3-3
											L582.4,45.4z"/>
										<path id="path1119" inkscape:connector-curvature="0" class="st13" d="M71.6,350.5c-2.5,0-5.8,1.6-10.3,4.9
											c-22.3,16.2-15.5,28.7-15.2,29.2c0.4,0.7,1.3,1,2,0.6c0.7-0.4,1-1.3,0.6-2c-0.2-0.4-5.6-10.8,14.3-25.3
											c6.3-4.6,8.6-4.5,9.4-4.1c2.1,1.1,1.7,8,1.3,15.3c-0.4,7-0.9,15.7,0.4,24.1c1.4,9.7,3,13.7,5.9,14.7
											c3.3,1.1,6.8-2.3,12.5-7.9c3-3,6.8-6.6,11.3-10.4c0.6-0.5,0.7-1.5,0.2-2.1s-1.5-0.7-2.1-0.2c-4.6,3.8-8.4,7.5-11.5,10.5
											c-4,4-7.8,7.7-9.4,7.2c-1.4-0.5-2.8-4.6-3.9-12.3c-1.2-8.1-0.7-16.6-0.3-23.5c0.5-9.3,0.9-16.1-2.8-18.1
											C73.2,350.7,72.5,350.5,71.6,350.5"/>
										<path id="path1121" inkscape:connector-curvature="0" class="st13" d="M517.6,515.8C517.6,515.8,517.6,515.8,517.6,515.8
											c-0.9,0.1-1.5,0.8-1.5,1.6c0.2,3.1,0.6,5.9,0.9,8.1c0.3,2.1,0.7,4.7,0.4,5.4c-0.3,0.1-1.5-0.1-5.5-2.1
											c-3.7-1.9-6.9-4.6-9.8-6.9c-4.1-3.3-6.8-5.6-9.2-4.4c-1.7,0.8-2.4,3-2.4,7.2c0,14.9,7.9,15.9,8.2,15.9
											c0.8,0.1,1.6-0.5,1.7-1.3c0.1-0.8-0.5-1.6-1.3-1.7c-0.2,0-5.6-1-5.6-12.9c0-4,0.7-4.5,0.7-4.5c0.8-0.2,4,2.3,6,4
											c2.8,2.3,6.4,5.2,10.3,7.3c4.2,2.2,6.9,3.2,8.7,1.9c1.8-1.3,1.4-3.9,0.8-8.3c-0.3-2.1-0.7-4.8-0.9-7.8
											C519.1,516.4,518.4,515.8,517.6,515.8"/>
										<path id="path1123" inkscape:connector-curvature="0" class="st13" d="M511.7,291.1c-7.2,0-10.4,3.9-10.6,4.1
											c-0.5,0.7-0.4,1.6,0.3,2.1c0.7,0.5,1.6,0.4,2.1-0.3c0.3-0.3,7.1-8.3,26,3.4c6,3.7,6.7,5.5,6.6,6.3
											c-0.2,2.1-6.4,4.2-12.4,6.3c-6,2.1-13.5,4.7-20.2,8.6c-7.7,4.6-10.5,7.4-10.4,10.2c0.2,3.3,4.3,5,11,7.9
											c3.5,1.5,7.9,3.4,12.6,5.9c0.7,0.4,1.6,0.1,2-0.6c0.4-0.7,0.1-1.6-0.6-2c-4.8-2.6-9.3-4.5-12.8-6c-4.7-2-9.1-3.9-9.2-5.3
											c-0.1-0.9,1.4-2.9,8.9-7.4c6.4-3.8,13.7-6.3,19.6-8.4c8.1-2.8,13.9-4.8,14.4-8.8c0.3-2.8-2.1-5.5-8-9.2
											C522.7,292.7,516.4,291.1,511.7,291.1"/>
										<path id="path1125" inkscape:connector-curvature="0" class="st13" d="M289,540.9c-1.7,0-2.7,0.5-2.9,0.5
											c-0.7,0.4-1.1,1.3-0.7,2c0.4,0.7,1.3,1.1,2,0.7c0.2-0.1,6-2.4,13.1,9.1c2.5,4,2,4.9,2,4.9c-0.5,0.8-5.2,0.2-8.3-0.2
											c-4-0.5-9.1-1.2-14-0.8c-6,0.4-8.4,1.3-9.2,3.2c-0.9,2.2,1,4.5,4.1,8.2c1.6,1.9,3.5,4.2,5.5,6.9c0.5,0.7,1.4,0.8,2.1,0.4
											c0.7-0.5,0.8-1.4,0.4-2.1c-2-2.8-4-5.2-5.6-7.1c-1.6-2-3.7-4.4-3.6-5.1c0.1-0.2,1-0.9,6.7-1.3c4.6-0.3,9.3,0.3,13.4,0.8
											c5.8,0.8,9.6,1.3,11.2-1.1c1.1-1.7,0.5-4.1-1.9-8.1C297.5,542.5,292.2,540.9,289,540.9"/>
										<path id="path1127" inkscape:connector-curvature="0" class="st13" d="M371.9,249.8c-2,0-4.5,0.2-7.4,0.4
											c-4.1,0.3-9.2,0.7-14.9,0.6h0c-0.8,0-1.5,0.7-1.5,1.5c0,0.8,0.7,1.5,1.5,1.5c5.8,0.1,11-0.3,15.2-0.7
											c5.5-0.4,10.6-0.8,11.5,0.5c0.8,1.3-0.8,5.1-4.8,11.5c-4.2,6.8-9.9,12.8-14.5,17.7c-6.3,6.6-10.8,11.4-9.3,15.3
											c1.1,2.7,4.8,4.2,12.1,4.7c26.8,1.9,29.5-11.7,29.6-12.3c0.1-0.8-0.4-1.6-1.2-1.7c-0.8-0.1-1.6,0.4-1.7,1.2
											c-0.1,0.5-2.6,11.5-26.5,9.8c-7.5-0.5-9.2-2-9.5-2.8c-0.8-2.1,4-7.2,8.7-12.2c4.7-5,10.5-11.2,14.8-18.2
											c5-8.2,6.3-12.1,4.8-14.7C377.6,250.4,375.3,249.8,371.9,249.8"/>
										<path id="path1129" inkscape:connector-curvature="0" class="st13" d="M24.6,272.7c-1.1,0-2.4,0.1-3.9,0.2
											c-2,0.2-4.5,0.4-7.3,0.4c-0.8,0-1.5,0.7-1.5,1.5c0,0.8,0.7,1.5,1.5,1.5h0c2.9,0,5.5-0.2,7.5-0.4c1.9-0.2,4.2-0.4,4.9-0.1
											c0,0.4-0.3,1.5-2.3,4.9c-2,3.3-4.6,6.2-6.9,8.7c-3.2,3.5-5.6,6.1-4.6,8.4c0.8,2.1,3.8,2.6,6.7,2.7
											c13.9,0.8,15.3-6.6,15.3-6.9c0.1-0.8-0.4-1.6-1.2-1.7c-0.8-0.1-1.6,0.4-1.7,1.2c0,0.2-1.2,5-12.2,4.4
											c-3.5-0.2-4-0.8-4.1-0.9c-0.1-0.8,2.3-3.4,4.1-5.2c2.3-2.5,5.2-5.6,7.3-9.2c2.3-3.8,3.4-6.3,2.3-8.1
											C27.7,273,26.5,272.7,24.6,272.7"/>
										<path id="path1131" inkscape:connector-curvature="0" class="st13" d="M264.6,412.5c-0.5,0-1,0.3-1.3,0.7
											c-0.4,0.7-0.2,1.6,0.5,2.1c3,1.8,5.8,3.1,8,4.2c2.3,1.1,5.2,2.5,5.4,3.2c0,0.2-0.6,1.2-5.6,3.9c-4.1,2.2-8.6,3.5-12.6,4.7
											c-5.6,1.6-9.3,2.7-9.8,5.6c-0.3,2,1.2,4,5,6.6c13.6,9.3,19.4,2.8,19.7,2.5c0.5-0.6,0.5-1.6-0.2-2.1
											c-0.6-0.5-1.6-0.5-2.1,0.2c-0.2,0.2-4.5,4.7-15.7-3c-3.9-2.7-3.8-3.7-3.8-3.7c0.2-1,4.7-2.3,7.7-3.2
											c3.9-1.1,8.8-2.6,13.2-4.9c5.3-2.8,7.2-4.6,7.2-6.6c0-2.4-2.7-3.7-7.1-5.8c-2.2-1.1-4.9-2.4-7.8-4.1
											C265.1,412.6,264.9,412.5,264.6,412.5"/>
										<path id="path1133" inkscape:connector-curvature="0" class="st13" d="M373.4,352.1c-1,0-1.6,0.2-1.7,0.2
											c-0.8,0.3-1.2,1.1-1,1.9s1.1,1.2,1.9,1c0.2-0.1,6-1.5,11.3,10.4c1.8,4.1,1.3,4.9,1.3,4.9c-0.6,0.7-5.1-0.6-7.9-1.3
											c-3.8-1-8.6-2.3-13.3-2.6c-5.9-0.4-8.3,0.1-9.3,1.8c-1.2,2,0.3,4.4,2.9,8.4c1.3,2,2.8,4.5,4.3,7.3c0.4,0.7,1.3,1,2,0.6
											c0.7-0.4,1-1.3,0.6-2c-1.6-3-3.2-5.5-4.5-7.6c-1.3-2.1-2.9-4.6-2.8-5.3c0.1-0.1,1.1-0.7,6.5-0.3c4.5,0.3,8.9,1.5,12.7,2.5
											c5.5,1.5,9.1,2.5,10.9,0.4c1.3-1.5,1.1-3.9-0.8-8.1C381.9,353.6,376.2,352.1,373.4,352.1"/>
										<path id="path1135" inkscape:connector-curvature="0" class="st13" d="M223.6,338.8c-0.2,0-0.4,0-0.6,0.1
											c-0.8,0.3-1.1,1.2-0.8,2c2.5,5.6,5.1,10.4,7.1,14.3c2.9,5.3,5.4,9.9,4.4,11.3c-0.9,1.3-5.3,1.4-13.2,0.4
											c-8.3-1.1-16.5-4-23.2-6.3c-9-3.2-15.6-5.4-18.6-2.3c-2.1,2.2-1.9,6.3,0.7,13.5c9.6,26.4,23.8,23.3,24.4,23.1
											c0.8-0.2,1.3-1,1.1-1.8c-0.2-0.8-1-1.3-1.8-1.1c-0.5,0.1-12.2,2.5-20.9-21.2c-2.7-7.5-2-9.8-1.4-10.4
											c1.7-1.7,8.4,0.6,15.5,3.1c6.8,2.4,15.2,5.3,23.8,6.4c10,1.3,14.3,0.9,16.1-1.7c2-2.9-0.3-7.3-4.2-14.5
											c-2.1-3.8-4.6-8.5-7-14C224.7,339.2,224.2,338.8,223.6,338.8"/>
										<path id="path1137" inkscape:connector-curvature="0" class="st13" d="M339.7,8c-2,0-3.6,2.1-6.1,5.5c-1.3,1.8-3,4-5,6.3
											c-0.5,0.6-0.5,1.6,0.1,2.1c0.6,0.6,1.6,0.5,2.1-0.1c2.1-2.4,3.8-4.7,5.2-6.5c1.3-1.8,3-4,3.7-4.2c0.3,0.2,1.1,1.1,2.5,5.6
											c1.3,4.1,1.7,8.4,2,12.2c0.5,5.4,0.9,9,3.4,9.9c1.8,0.7,3.9-0.4,7-3.4c10.8-10.7,5.9-17.2,5.6-17.5
											c-0.5-0.6-1.5-0.8-2.1-0.2c-0.6,0.5-0.8,1.5-0.2,2.1c0.1,0.2,3.4,4.8-5.4,13.5c-3,2.9-3.9,2.8-3.9,2.8
											c-0.8-0.4-1.2-4.6-1.5-7.4c-0.4-3.7-0.8-8.4-2.2-12.8c-1.7-5.4-2.9-7.4-4.8-7.7C340,8,339.8,8,339.7,8"/>
										<path id="path1139" inkscape:connector-curvature="0" class="st13" d="M167.6,53.8c-2.7,0-4.3,0.8-4.5,0.9
											c-0.7,0.4-1,1.3-0.6,2c0.4,0.7,1.3,1,2,0.6c0.3-0.2,9-4.4,20.7,12.5c3.8,5.5,3.5,7.2,3.2,7.7c-0.9,1.6-6.9,1.1-12.7,0.6
											c-5.9-0.5-13.2-1.1-20.3-0.2c-8.3,1-11.8,2.3-12.7,4.8c-1.1,2.9,1.8,5.9,6.4,10.9c2.4,2.6,5.4,5.8,8.5,9.7
											c0.5,0.7,1.5,0.8,2.1,0.3c0.7-0.5,0.8-1.5,0.2-2.1c-3.1-4-6.2-7.3-8.7-9.9c-3.1-3.3-6.2-6.7-5.8-7.8
											c0.2-0.6,1.9-1.8,10.2-2.9c6.8-0.8,14-0.3,19.7,0.2c7.9,0.6,13.7,1.1,15.6-2.1c1.3-2.3,0.3-5.6-3.4-10.9
											C179.4,56.1,172.1,53.8,167.6,53.8"/>
										<path id="path1141" inkscape:connector-curvature="0" class="st14" d="M371.3,134.4c-0.4-3,0.4-5.9,2.3-8.3
											c1.8-2.4,4.5-3.9,7.5-4.3c3-0.4,5.9,0.4,8.3,2.3c2.4,1.8,3.9,4.5,4.3,7.5c0.8,6.2-3.6,11.8-9.8,12.6
											c-3,0.4-5.9-0.4-8.3-2.3C373.2,140,371.7,137.4,371.3,134.4 M382.5,118.7c-0.6,0-1.2,0-1.8,0.1c-7.8,1-13.3,8.1-12.4,15.9
											c0.5,3.8,2.4,7.1,5.4,9.5s6.7,3.4,10.5,2.9c7.8-1,13.3-8.1,12.4-15.9C395.7,124,389.6,118.7,382.5,118.7"/>
										<path id="path1143" inkscape:connector-curvature="0" class="st14" d="M192.1,147.5c-1.3,0-2.6-0.3-3.8-0.9
											c-2.2-1-3.8-2.8-4.6-5.1c-0.8-2.3-0.7-4.7,0.3-6.9c2.1-4.5,7.5-6.4,12-4.3c4.5,2.1,6.4,7.5,4.3,12c-1,2.2-2.8,3.8-5.1,4.6
											C194.2,147.4,193.2,147.5,192.1,147.5 M192.2,126.5c-4.5,0-8.8,2.6-10.9,6.9c-1.4,2.9-1.5,6.2-0.4,9.2
											c1.1,3,3.3,5.4,6.2,6.8c2.9,1.4,6.2,1.5,9.2,0.4c3-1.1,5.4-3.3,6.8-6.2c2.8-6,0.2-13.2-5.7-16
											C195.6,126.9,193.9,126.5,192.2,126.5"/>
										<path id="path1145" inkscape:connector-curvature="0" class="st14" d="M335.2,119.3c3.3-3.9,9.1-4.4,13-1.2
											c1.9,1.6,3,3.8,3.3,6.2c0.2,2.5-0.5,4.8-2.1,6.7c-3.3,3.9-9.1,4.4-13,1.2C332.5,129.1,331.9,123.2,335.2,119.3 M342.3,113
											c-3.5,0-7,1.5-9.4,4.4c-4.3,5.2-3.6,12.9,1.5,17.2c5.2,4.3,12.9,3.6,17.2-1.5c2.1-2.5,3.1-5.7,2.8-8.9
											c-0.3-3.2-1.8-6.2-4.3-8.3C347.8,114,345,113,342.3,113"/>
										<path id="path1147" inkscape:connector-curvature="0" class="st14" d="M165.3,244c-0.7,0-1.4-0.1-2.1-0.3
											c-2-0.5-3.6-1.8-4.6-3.6c-1-1.8-1.3-3.9-0.7-5.8c0.5-2,1.8-3.6,3.6-4.6c1.8-1,3.9-1.3,5.8-0.7c2,0.5,3.6,1.8,4.6,3.6
											c2.1,3.7,0.8,8.4-2.9,10.5C167.9,243.7,166.6,244,165.3,244 M165.3,225.7c-1.8,0-3.6,0.4-5.2,1.4c-2.5,1.4-4.3,3.7-5,6.4
											c-0.8,2.7-0.4,5.6,1,8.1c2.9,5.1,9.4,6.9,14.5,4c2.5-1.4,4.3-3.7,5-6.4c0.8-2.7,0.4-5.6-1-8.1
											C172.6,227.6,169,225.7,165.3,225.7"/>
										<path id="path1149" inkscape:connector-curvature="0" class="st14" d="M265.3,593.6c-3.2-0.4-5.5-3.3-5.1-6.5
											c0.2-1.6,1-2.9,2.2-3.9c1.2-1,2.8-1.4,4.3-1.2c1.6,0.2,2.9,1,3.9,2.2c1,1.2,1.4,2.8,1.2,4.3c-0.2,1.6-1,2.9-2.2,3.9
											C268.4,593.4,266.8,593.8,265.3,593.6 M266,579c-4.4,0-8.3,3.3-8.8,7.8c-0.3,2.4,0.4,4.7,1.9,6.5s3.6,3,5.9,3.3
											c2.4,0.3,4.7-0.4,6.5-1.9c1.9-1.5,3-3.6,3.3-5.9c0.3-2.3-0.4-4.7-1.9-6.5c-1.5-1.9-3.6-3-5.9-3.3
											C266.6,579,266.3,579,266,579"/>
										<path id="path1151" inkscape:connector-curvature="0" class="st14" d="M23.8,254c-1.4,0-2.8-0.3-4.1-0.9
											c-2.3-1.1-4.1-3-4.9-5.4c-0.9-2.4-0.7-5,0.4-7.3c2.3-4.8,8-6.8,12.8-4.5l0,0c4.8,2.3,6.8,8,4.5,12.8
											c-1.1,2.3-3,4.1-5.4,4.9C25.9,253.8,24.9,254,23.8,254 M23.8,231.8c-4.7,0-9.2,2.6-11.4,7.2c-1.4,3-1.6,6.5-0.5,9.6
											c1.1,3.2,3.4,5.7,6.5,7.1c3,1.4,6.5,1.6,9.6,0.5c3.2-1.1,5.7-3.4,7.2-6.5c3-6.3,0.3-13.8-6-16.8h0
											C27.5,232.2,25.6,231.8,23.8,231.8"/>
										<path id="path1153" inkscape:connector-curvature="0" class="st14" d="M434,65.9c-2.7,0-5.3-1.6-6.5-4.2
											c-1.6-3.6-0.1-7.8,3.5-9.5c3.6-1.6,7.8-0.1,9.5,3.5c1.6,3.6,0.1,7.8-3.5,9.5C436,65.7,434.9,65.9,434,65.9 M433.9,48.6
											c-1.4,0-2.9,0.3-4.2,0.9c-2.5,1.1-4.3,3.1-5.3,5.7c-0.9,2.5-0.8,5.3,0.3,7.8c1.1,2.5,3.1,4.3,5.7,5.3
											c2.5,0.9,5.3,0.8,7.8-0.3c5.1-2.3,7.3-8.4,5-13.5c-1.1-2.5-3.1-4.3-5.7-5.3C436.3,48.8,435.1,48.6,433.9,48.6"/>
										<path id="path1155" inkscape:connector-curvature="0" class="st14" d="M119.1,461.7c-2,0-3.9-1-5-2.8
											c-0.8-1.3-1-2.9-0.7-4.4s1.3-2.8,2.6-3.6c2.7-1.7,6.3-0.8,8,2c1.7,2.7,0.8,6.3-2,8C121.2,461.4,120.2,461.7,119.1,461.7
											 M119.1,447.1c-1.6,0-3.1,0.4-4.5,1.3c-2,1.2-3.4,3.1-4,5.4c-0.6,2.3-0.2,4.7,1,6.7c2.5,4.2,7.9,5.5,12.1,3
											c2-1.2,3.4-3.1,4-5.4c0.6-2.3,0.2-4.7-1-6.7C125,448.6,122.1,447.1,119.1,447.1"/>
										<path id="path1157" inkscape:connector-curvature="0" class="st14" d="M94.7,189.4c-3.3,0-6.3-2-7.5-5.2
											c-1.6-4.1,0.5-8.8,4.7-10.4c4.1-1.6,8.8,0.5,10.4,4.7c1.6,4.1-0.5,8.8-4.7,10.4h0C96.6,189.2,95.6,189.4,94.7,189.4
											 M94.6,170.3c-1.3,0-2.6,0.2-3.9,0.7c-5.7,2.1-8.6,8.5-6.4,14.2c2.1,5.7,8.5,8.6,14.2,6.4h0c5.7-2.1,8.6-8.5,6.4-14.2
											C103.3,173,99.1,170.3,94.6,170.3"/>
										<path id="path1159" inkscape:connector-curvature="0" class="st14" d="M279.4,310.6c-0.8,0-1.7-0.1-2.5-0.3
											c-5.1-1.4-8.2-6.7-6.8-11.8c0.7-2.5,2.3-4.6,4.5-5.8c2.2-1.3,4.8-1.6,7.3-0.9c5.1,1.4,8.2,6.7,6.8,11.8
											C287.5,307.8,283.6,310.6,279.4,310.6 M279.4,288.3c-2.2,0-4.3,0.6-6.3,1.7c-2.9,1.7-5,4.4-5.9,7.7
											c-1.8,6.7,2.2,13.7,8.9,15.5c6.7,1.8,13.7-2.2,15.5-8.9c1.8-6.7-2.2-13.7-8.9-15.5C281.6,288.5,280.5,288.3,279.4,288.3"
											/>
										<path id="path1161" inkscape:connector-curvature="0" class="st14" d="M408.9,34.8c-1.2,0-2.4-0.3-3.6-0.9
											c-1.7-1-3-2.5-3.6-4.4c-1.1-3.9,1.1-8,5-9.2c1.9-0.6,3.9-0.3,5.6,0.6c1.7,1,3,2.5,3.6,4.4c0.6,1.9,0.3,3.9-0.6,5.6
											c-1,1.7-2.5,3-4.4,3.6C410.3,34.7,409.6,34.8,408.9,34.8 M408.9,17c-1,0-1.9,0.1-2.9,0.4c-5.5,1.6-8.7,7.4-7.1,12.9
											c0.8,2.7,2.6,4.9,5,6.2c2.4,1.3,5.3,1.6,7.9,0.9c2.7-0.8,4.9-2.6,6.2-5c1.3-2.4,1.6-5.3,0.9-7.9
											C417.6,19.9,413.4,17,408.9,17"/>
										<path id="path1163" inkscape:connector-curvature="0" class="st14" d="M226,131.7c-1.3,0-2.5-0.2-3.8-0.7
											c-2.8-1-5.1-3.1-6.3-5.8c-1.3-2.7-1.4-5.7-0.4-8.6c1-2.8,3.1-5.1,5.8-6.3c2.7-1.3,5.7-1.4,8.6-0.4h0
											c2.8,1,5.1,3.1,6.3,5.8c1.3,2.7,1.4,5.7,0.4,8.6C234.9,128.8,230.6,131.7,226,131.7 M226,106.3c-2.1,0-4.1,0.5-6,1.4
											c-3.4,1.6-6,4.5-7.3,8c-1.3,3.6-1.1,7.4,0.5,10.8c1.6,3.4,4.5,6,8,7.3c7.4,2.7,15.5-1.2,18.2-8.5
											c1.3-3.6,1.1-7.4-0.5-10.8c-1.6-3.4-4.5-6-8-7.3C229.3,106.6,227.7,106.3,226,106.3"/>
										<path id="path1165" inkscape:connector-curvature="0" class="st14" d="M487.8,396.7c4.8-2.7,10.9-1,13.6,3.9
											c2.7,4.8,1,10.9-3.9,13.6c-2.3,1.3-5,1.6-7.6,0.9c-2.6-0.7-4.7-2.4-6-4.8C481.2,405.5,483,399.4,487.8,396.7 M492.6,392.5
											c-2.1,0-4.3,0.5-6.3,1.6c-6.3,3.5-8.5,11.4-5,17.7c1.7,3,4.5,5.2,7.8,6.2c3.3,0.9,6.9,0.5,9.9-1.2
											c6.3-3.5,8.5-11.4,5-17.7C501.6,394.9,497.2,392.5,492.6,392.5"/>
										<path id="path1167" inkscape:connector-curvature="0" class="st14" d="M24.1,500.6c-0.4,0-0.7,0-1.1-0.1
											c-1.8-0.3-3.3-1.3-4.4-2.7c-1.1-1.5-1.5-3.2-1.2-5l0,0c0.3-1.8,1.3-3.3,2.7-4.4c1.5-1.1,3.2-1.5,5-1.2
											c3.7,0.6,6.2,4.1,5.6,7.7c-0.3,1.8-1.3,3.3-2.7,4.4C26.9,500.1,25.5,500.6,24.1,500.6 M24.1,484.1c-2,0-4,0.6-5.7,1.8
											c-2.1,1.5-3.5,3.8-3.9,6.3c-0.4,2.6,0.2,5.1,1.7,7.3c1.5,2.1,3.8,3.5,6.3,3.9c5.3,0.9,10.3-2.8,11.2-8.1
											c0.9-5.3-2.8-10.3-8.1-11.2C25.2,484.1,24.6,484.1,24.1,484.1"/>
										<path id="path1169" inkscape:connector-curvature="0" class="st14" d="M286.2,523.2c-0.5,0-1-0.1-1.4-0.2
											c-1.3-0.4-2.3-1.2-3-2.4c-0.6-1.2-0.8-2.5-0.4-3.8c0.4-1.3,1.2-2.3,2.4-3c1.2-0.6,2.5-0.8,3.8-0.4c1.3,0.4,2.3,1.2,3,2.4
											c1.3,2.4,0.4,5.5-2,6.8v0C287.8,523,287,523.2,286.2,523.2 M286.2,510.1c-1.3,0-2.6,0.3-3.8,1c-1.9,1-3.3,2.7-3.9,4.8
											c-0.6,2-0.4,4.2,0.6,6.1c1,1.9,2.7,3.3,4.8,3.9c2,0.6,4.2,0.4,6.1-0.6v0c3.9-2.1,5.3-7,3.3-10.9c-1-1.9-2.7-3.3-4.8-3.9
											C287.7,510.3,287,510.1,286.2,510.1"/>
										<path id="path1171" inkscape:connector-curvature="0" class="st15" d="M581.3,31.7l10-5.2c0.2,1,0.2,2-0.1,3
											c-0.5,1.5-1.5,2.7-2.9,3.4C585.9,34.2,583.1,33.6,581.3,31.7 M592.8,22.4l-15.7,8.1l0.7,1.3c2.2,4.3,7.6,6,11.9,3.8
											c2.1-1.1,3.6-2.9,4.3-5.2c0.7-2.2,0.5-4.6-0.6-6.7L592.8,22.4z"/>
										<path id="path1173" inkscape:connector-curvature="0" class="st15" d="M89.2,471.8c0.2-0.8,0.6-1.5,1.2-2.1
											c0.9-1,2.2-1.6,3.5-1.6h0c2.2,0,4.2,1.4,4.9,3.4L89.2,471.8z M94.1,465.1c-0.1,0-0.2,0-0.3,0c-2.2,0.1-4.1,1-5.6,2.5
											s-2.2,3.6-2.2,5.8l0,1.5l16.1-0.5l0-1.5c-0.1-2.2-1-4.1-2.5-5.6C98.1,465.9,96.2,465.1,94.1,465.1"/>
										<path id="path1175" inkscape:connector-curvature="0" class="st15" d="M243.8,84.9c0.2-4.4,3.5-7.9,7.8-8.4L250.8,94
											c-1.8-0.4-3.4-1.3-4.7-2.7C244.5,89.6,243.7,87.3,243.8,84.9 M252.7,73.4c-6.3,0-11.6,5-11.9,11.4c-0.1,3.2,1,6.2,3.1,8.6
											c2.1,2.3,5.1,3.7,8.3,3.8l1.5,0.1l1-23.8l-1.5-0.1C253,73.4,252.8,73.4,252.7,73.4"/>
										<path id="path1177" inkscape:connector-curvature="0" class="st15" d="M534.7,166.9c-2.3,0-4.6-0.8-6.4-2.4
											c-2-1.7-3.1-4.1-3.3-6.6c-0.1-2.1,0.4-4.1,1.5-5.8l14.4,12.6c-1.6,1.3-3.5,2.1-5.6,2.2C535.2,166.9,535,166.9,534.7,166.9
											 M526.2,147.7l-1,1.1c-4.6,5.3-4.1,13.3,1.2,17.9c2.6,2.2,5.8,3.3,9.2,3.1c3.4-0.2,6.5-1.8,8.7-4.3l1-1.1L526.2,147.7z"/>
										<path id="path1179" inkscape:connector-curvature="0" class="st15" d="M275.9,217.9l9.2-3.3c0.1,2.2-1.2,4.3-3.4,5
											C279.6,220.4,277.2,219.6,275.9,217.9 M287.1,210.7l-15.2,5.5l0.5,1.4c1.5,4.2,6.2,6.4,10.4,4.9c2-0.7,3.7-2.2,4.6-4.2
											c0.9-2,1-4.2,0.3-6.2L287.1,210.7z"/>
										<path id="path1181" inkscape:connector-curvature="0" class="st15" d="M361.3,229.6l7.1-6c0.3,0.7,0.4,1.5,0.4,2.3
											c-0.1,1.3-0.7,2.5-1.7,3.3c-1,0.8-2.3,1.3-3.6,1.1C362.7,230.3,362,230,361.3,229.6 M369,219.2l-12,10.2l1,1.1
											c1.4,1.6,3.3,2.6,5.4,2.8c2.1,0.2,4.1-0.5,5.8-1.9c1.6-1.4,2.6-3.3,2.8-5.4c0.2-2.1-0.5-4.1-1.9-5.8L369,219.2z"/>
										<path id="path1183" inkscape:connector-curvature="0" class="st15" d="M294.2,409.3c-2.1,0-4.1-0.7-5.8-2.2
											c-3.4-2.9-4.1-7.8-1.9-11.4l13.5,11.5C298.3,408.6,296.2,409.3,294.2,409.3 M286,391.4l-1,1.1c-4.3,5-3.7,12.6,1.3,16.9
											c2.4,2.1,5.5,3.1,8.7,2.8c3.2-0.2,6.1-1.7,8.2-4.2l1-1.1L286,391.4z"/>
										<path id="path1185" inkscape:connector-curvature="0" class="st15" d="M303.8,379.1c1.1-0.7,2.4-1.1,3.8-1.1h0.1
											c1.9,0,3.6,0.7,4.9,2l0,0c1.3,1.3,2.1,3.1,2.1,5c0,1.4-0.4,2.7-1.1,3.8L303.8,379.1z M307.7,374.9L307.7,374.9
											c-2.8,0-5.3,1.1-7.2,3l-1.1,1.1l14.3,14.1l1.1-1.1c1.9-1.9,2.9-4.4,2.9-7.1c0-2.7-1.1-5.2-3-7.1v0
											C312.8,375.9,310.3,374.9,307.7,374.9"/>
										<path id="path1187" inkscape:connector-curvature="0" class="st15" d="M471.9,587.9l0.3-10.5c2.3,0.7,3.9,2.9,3.8,5.3v0
											c0,1.5-0.6,2.8-1.7,3.8C473.6,587.2,472.8,587.6,471.9,587.9 M469.3,574.1l-0.4,16.9l1.5,0c2.3,0.1,4.4-0.8,6-2.3
											c1.6-1.6,2.6-3.7,2.6-5.9v0c0.1-4.7-3.6-8.5-8.2-8.7L469.3,574.1z"/>
										<path id="path1189" inkscape:connector-curvature="0" class="st15" d="M133.3,555.8c-2.4,0-4.8-0.9-6.7-2.7
											c-3.5-3.3-4-8.7-1.3-12.6l13.9,13.2C137.5,555.1,135.4,555.8,133.3,555.8 M125.1,536.2l-1,1.1c-2.3,2.5-3.6,5.7-3.5,9.1
											c0.1,3.4,1.5,6.6,4,8.9c5.1,4.8,13.2,4.6,18-0.5l1-1.1L125.1,536.2z"/>
										<path id="path1191" inkscape:connector-curvature="0" class="st15" d="M436.3,33.1l1.6-18.6c1.9,0.5,3.6,1.5,4.9,3.1
											c1.6,1.9,2.4,4.4,2.2,6.9c-0.2,2.5-1.4,4.8-3.3,6.4C440.2,32.2,438.3,32.9,436.3,33.1 M435.2,11.1l-2.1,24.8l1.5,0.1
											c3.3,0.3,6.5-0.7,9.1-2.9s4.1-5.1,4.4-8.5c0.3-3.3-0.7-6.5-2.9-9.1c-2.1-2.5-5.1-4.1-8.5-4.4L435.2,11.1z"/>
										<path id="path1193" inkscape:connector-curvature="0" class="st15" d="M228.3,473.2c1.2-2.6,3.2-4.7,5.8-6
											c3-1.5,6.5-1.8,9.7-0.7c3.2,1.1,5.8,3.3,7.4,6.4c1.3,2.6,1.7,5.5,1.1,8.3L228.3,473.2z M239.9,462.9
											c-6.6,0-12.7,4.2-14.9,10.7l-0.5,1.4l29.8,10l0.5-1.4c1.3-4,1-8.2-0.8-12s-5.1-6.6-9.1-7.9
											C243.2,463.1,241.5,462.9,239.9,462.9"/>
										<path id="path1195" inkscape:connector-curvature="0" class="st15" d="M133.7,250.9c-1.7-1.6-2.2-4.2-1.1-6.4
											c1.1-2.2,3.5-3.3,5.8-2.8L133.7,250.9z M137.4,238.6c-3.1,0-6,1.7-7.5,4.6c-2.1,4.1-0.5,9.2,3.7,11.3l1.3,0.7l7.6-14.9
											l-1.3-0.7C140,238.9,138.7,238.6,137.4,238.6"/>
										<path id="path1197" inkscape:connector-curvature="0" class="st15" d="M193.7,338l11.4-3.2c0,1.1-0.2,2.2-0.8,3.1
											c-0.8,1.4-2.1,2.4-3.7,2.9C197.9,341.6,195,340.3,193.7,338 M207.3,331l-17.5,4.9l0.4,1.4c1.4,4.8,6.4,7.7,11.2,6.3
											c2.3-0.7,4.3-2.2,5.5-4.3c1.2-2.1,1.5-4.6,0.8-6.9L207.3,331z"/>
										<path id="path1199" inkscape:connector-curvature="0" class="st15" d="M542.2,340.9c-0.3,0-0.6,0-1-0.1
											c-1.7-0.3-3.3-1.2-4.3-2.6c-0.7-1-1.2-2.2-1.3-3.4l12.7,1.9C547.4,339.2,545,340.9,542.2,340.9 M533,331.4l-0.2,1.5
											c-0.4,2.5,0.3,5.1,1.8,7.1c1.5,2.1,3.8,3.4,6.3,3.8c5.2,0.8,10.1-2.9,10.9-8.1l0.2-1.5L533,331.4z"/>
										<path id="path1201" inkscape:connector-curvature="0" class="st16" d="M96.2,329.8l16.6-6l2.4,33.7l-16.6,5.7L96.2,329.8z
											 M115.5,319.6L93,327.8l2.9,39.6l22.5-7.8L115.5,319.6z"/>
										<path id="path1203" inkscape:connector-curvature="0" class="st16" d="M408.7,158.8l6.9-21.8l11.4,0.5l-6.9,21.6
											L408.7,158.8z M413.4,133.9l-8.8,27.8l17.7,0.5l8.7-27.5L413.4,133.9z"/>
										<path id="path1205" inkscape:connector-curvature="0" class="st16" d="M73.8,78.8l12-19.5l11.2,3.2L84.9,82.1L73.8,78.8z
											 M84.5,55.7L69.2,80.5l17.1,5.1l15.4-25L84.5,55.7z"/>
										<path id="path1207" inkscape:connector-curvature="0" class="st16" d="M360.8,431.3l-5.1-18.2l36.1,0.2l4.8,18.2
											L360.8,431.3z M351.7,410.1l6.7,24.2l42,0.2l-6.3-24.2L351.7,410.1z"/>
										<path id="path1209" inkscape:connector-curvature="0" class="st16" d="M100.9,427l17.9-22.9l14,5.7L114.8,433L100.9,427z
											 M117.9,400.5l-21.8,27.7l19.5,8.4l22-28L117.9,400.5z"/>
										<path id="path1211" inkscape:connector-curvature="0" class="st16" d="M172.5,18.7l10.6-2.7l-0.3,21.8l-10.6,2.9
											L172.5,18.7z M186.2,12.2l-16.6,4.2l-0.4,28.2l16.6-4.5L186.2,12.2z"/>
										<path id="path1213" inkscape:connector-curvature="0" class="st16" d="M504.4,35.4l2.4-21.2l37.4,15.3l-2.7,21.1
											L504.4,35.4z M504.3,9.9l-3.1,27.4L544,54.8l3.5-27.2L504.3,9.9z"/>
										<path id="path1215" inkscape:connector-curvature="0" class="st16" d="M451.4,306.2l3.4-19.1l33.2,16.1l-3.7,19
											L451.4,306.2z M452.6,282.7l-4.5,25.2l38.5,18.7l4.9-25.1L452.6,282.7z"/>
										<path id="path1217" inkscape:connector-curvature="0" class="st16" d="M488.8,158.3l17.7-9.3l8.4,37l-17.7,9.6
											L488.8,158.3z M508.6,144.5l-23.2,12.2l9.9,43.4l23.1-12.6L508.6,144.5z"/>
										<path id="path1219" inkscape:connector-curvature="0" class="st16" d="M383.9,570.5l10-11.7l16.6,24.8l-10.1,11.5
											L383.9,570.5z M394.2,553.8l-14,16.5L400,600l14.2-16.2L394.2,553.8z"/>
										<path id="path1221" inkscape:connector-curvature="0" class="st16" d="M14.6,105.4l9.4-2.9l0.8,19.8l-9.4,3.1L14.6,105.4z
											 M26.8,98.5l-15.3,4.7l1,26.3l15.3-5L26.8,98.5z"/>
										<path id="path1223" inkscape:connector-curvature="0" class="st16" d="M513.7,437.1l23-39.8l23.9,6.1l-23.2,40.1
											L513.7,437.1z M535.2,393.9L509.1,439l29.7,8l26.3-45.5L535.2,393.9z"/>
										<path id="path1225" inkscape:connector-curvature="0" class="st16" d="M317.4,514.5l11-0.2l-5.3,21.3L312,536L317.4,514.5
											z M332.3,511.3l-17.2,0.3l-6.9,27.6l17.3-0.5L332.3,511.3z"/>
										<path id="path1227" inkscape:connector-curvature="0" class="st16" d="M130.3,21.5l14.5-7.3l6.4,30.6l-14.5,7.6
											L130.3,21.5z M147,9.8l-20.1,10.1l7.7,37l20-10.5L147,9.8z"/>
										<path id="path1229" inkscape:connector-curvature="0" class="st16" d="M316.6,255.1l21.4-4.2l4.8,9.8l-21.3,4.1
											L316.6,255.1z M339.8,247.6l-27.6,5.4l7.7,15.3l27.3-5.3L339.8,247.6z"/>
										<path id="path1231" inkscape:connector-curvature="0" class="st17" d="M587.5,323.8c-0.7,0-1.3,0.5-1.5,1.2l-1.6,8.3
											l-17.9-1.5c-0.8-0.1-1.5,0.5-1.6,1.4c-0.1,0.8,0.5,1.5,1.4,1.6l20.6,1.7l2.2-11c0.2-0.8-0.4-1.6-1.2-1.8
											C587.7,323.8,587.6,323.8,587.5,323.8"/>
										<path id="path1233" inkscape:connector-curvature="0" class="st17" d="M459.7,30.4c-0.5,0-0.9,0.2-1.2,0.6
											c-0.5,0.7-0.3,1.6,0.3,2.1l7.7,5.7l-10,17.5c-0.4,0.7-0.2,1.6,0.6,2c0.7,0.4,1.6,0.2,2-0.6l11.3-19.8l-9.9-7.2
											C460.3,30.5,460,30.4,459.7,30.4"/>
										<path id="path1235" inkscape:connector-curvature="0" class="st17" d="M53.8,525.3L38,532.9c-0.7,0.4-1.1,1.3-0.7,2
											s1.3,1.1,2,0.7l13.3-6.5L69,554.9c0.4,0.7,1.4,0.9,2.1,0.5c0.7-0.4,0.9-1.4,0.5-2.1L53.8,525.3z"/>
										<path id="path1237" inkscape:connector-curvature="0" class="st17" d="M338.7,497.5c-0.8,0-1.5,0.6-1.5,1.4
											c0,0.8,0.6,1.5,1.4,1.6l11.8,0.5l1.7,24.4c0.1,0.8,0.8,1.5,1.6,1.4c0.8-0.1,1.4-0.8,1.4-1.6l-1.9-27.1L338.7,497.5
											C338.7,497.5,338.7,497.5,338.7,497.5"/>
										<path id="path1239" inkscape:connector-curvature="0" class="st17" d="M17.3,311.6c-0.1,0-0.1,0-0.2,0
											c-0.8,0.1-1.4,0.9-1.3,1.7l3.4,26.1l14.1-0.2c0.8,0,1.5-0.7,1.5-1.5c0-0.8-0.7-1.5-1.5-1.5h0l-11.4,0.2l-3-23.5
											C18.6,312.2,18,311.6,17.3,311.6"/>
										<path id="path1241" inkscape:connector-curvature="0" class="st17" d="M200.3,101.6c-0.1,0-0.2,0-0.3,0l-25,4.4l0.8,13.5
											c0.1,0.8,0.8,1.5,1.6,1.4c0.8-0.1,1.5-0.8,1.4-1.6l-0.7-10.9l22.4-3.9c0.8-0.1,1.4-0.9,1.2-1.7
											C201.7,102.1,201,101.6,200.3,101.6"/>
										<path id="path1243" inkscape:connector-curvature="0" class="st17" d="M312.2,72.4c-0.2,0-0.5,0.1-0.7,0.2
											c-0.7,0.4-1,1.3-0.7,2l11.8,23.2l13-4.8c0.8-0.3,1.2-1.2,0.9-1.9s-1.2-1.2-1.9-0.9l-10.5,3.9l-10.6-20.8
											C313.3,72.7,312.7,72.4,312.2,72.4"/>
										<path id="path1245" inkscape:connector-curvature="0" class="st17" d="M571.1,91.1c-0.2,0-0.5,0.1-0.7,0.2
											c-0.7,0.4-1,1.3-0.6,2l13.9,25.7l14.4-5.8c0.8-0.3,1.1-1.2,0.8-2c-0.3-0.8-1.2-1.1-2-0.8l-11.9,4.8l-12.6-23.3
											C572.2,91.4,571.7,91.1,571.1,91.1"/>
										<path id="path1247" inkscape:connector-curvature="0" class="st17" d="M280.1,237.1c-0.1,0-0.3,0-0.4,0.1
											c-0.8,0.2-1.2,1.1-1,1.9l10.3,33.2l18-3.4c0.8-0.2,1.4-0.9,1.2-1.8c-0.2-0.8-0.9-1.3-1.8-1.2l-15.4,2.9l-9.5-30.6
											C281.4,237.5,280.8,237.1,280.1,237.1"/>
										<path id="path1249" inkscape:connector-curvature="0" class="st17" d="M263.8,359.4c-0.5,0-1,0.2-1.3,0.7
											c-0.5,0.7-0.3,1.6,0.4,2.1l10.9,7.2l-12.3,24.1c-0.4,0.7-0.1,1.6,0.7,2c0.7,0.4,1.6,0.1,2-0.7l13.5-26.4l-13.1-8.7
											C264.3,359.5,264,359.4,263.8,359.4"/>
										<path id="path1251" inkscape:connector-curvature="0" class="st17" d="M117.6,190.7l-9.2,6.2c-0.7,0.5-0.9,1.4-0.4,2.1
											c0.5,0.7,1.4,0.9,2.1,0.4l7-4.7l11.6,13.7c0.5,0.6,1.5,0.7,2.1,0.2c0.6-0.5,0.7-1.5,0.2-2.1L117.6,190.7z"/>
										<path id="path1253" inkscape:connector-curvature="0" class="st17" d="M15.1,356.6L8.2,368c-0.4,0.7-0.2,1.6,0.5,2.1
											c0.7,0.4,1.6,0.2,2.1-0.5l5.5-9.1l20.2,9.3c0.8,0.3,1.6,0,2-0.7c0.3-0.8,0-1.6-0.7-2L15.1,356.6z"/>
										<path id="path1255" inkscape:connector-curvature="0" class="st17" d="M554.2,501.2c-0.2,0-0.3,0-0.5,0.1l-18.4,6.1
											l2.1,10.3c0.2,0.8,1,1.3,1.8,1.2c0.8-0.2,1.3-1,1.2-1.8l-1.6-7.7l15.8-5.2c0.8-0.3,1.2-1.1,1-1.9
											C555.5,501.6,554.9,501.2,554.2,501.2"/>
										<path id="path1257" inkscape:connector-curvature="0" class="st17" d="M574.5,351.4c-0.5,0-1,0.2-1.3,0.7
											c-0.4,0.7-0.2,1.6,0.4,2.1l8.6,5.5l-9.5,19.2c-0.4,0.7-0.1,1.6,0.7,2s1.6,0.1,2-0.7l10.7-21.6l-10.8-7
											C575.1,351.4,574.8,351.4,574.5,351.4"/>
										<path id="path1259" inkscape:connector-curvature="0" class="st17" d="M590.7,490.3c-0.5,0-1,0.3-1.3,0.8L574,519.6
											l14,9.8c0.7,0.5,1.6,0.3,2.1-0.4c0.5-0.7,0.3-1.6-0.4-2.1l-11.8-8.3l14.2-26.1c0.4-0.7,0.1-1.6-0.6-2
											C591.2,490.4,591,490.3,590.7,490.3"/>
										<path id="path1261" inkscape:connector-curvature="0" class="st18" d="M38.6,545.2l1.7,10l-2.6-3
											c-0.5-0.6-1.5-0.7-2.1-0.2s-0.7,1.5-0.2,2.1l9.6,11.4l-1.4-8.7l14.2,18.9l-6.2-21.9c-0.2-0.8-1.1-1.3-1.9-1
											c-0.8,0.2-1.3,1.1-1,1.9l1.8,6.4L38.6,545.2z"/>
										<path id="path1263" inkscape:connector-curvature="0" class="st18" d="M437.3,392.1l8,9.8l-6.1-2.3
											c-0.8-0.3-1.6,0.1-1.9,0.9c-0.3,0.8,0.1,1.6,0.9,1.9l16.4,6l-7.2-8.8l27.2,11.7l-19.2-18.7c-0.6-0.6-1.5-0.6-2.1,0
											c-0.6,0.6-0.6,1.5,0,2.1l7.6,7.5L437.3,392.1z"/>
										<path id="path1265" inkscape:connector-curvature="0" class="st18" d="M240.3,13.7l19.5,14.4c0.7,0.5,1.6,0.4,2.1-0.3
											c0.5-0.7,0.4-1.6-0.3-2.1l-6.5-4.8l21.1,5.9l-8.1-7.5l4.8,1c0.8,0.2,1.6-0.3,1.8-1.1c0.2-0.8-0.3-1.6-1.1-1.8L258,14
											l7.1,6.6L240.3,13.7z"/>
										<path id="path1267" inkscape:connector-curvature="0" class="st18" d="M136.2,478.6c-0.1,0-0.3,0-0.4,0.1l-22.3,6.6
											l16.6,4.2l-41.6,9.9l35.4,4.8c0.8,0.1,1.6-0.5,1.7-1.3c0.1-0.8-0.5-1.6-1.3-1.7l-19.4-2.6l37.8-9l-17.8-4.5l11.7-3.5
											c0.8-0.2,1.2-1.1,1-1.9C137.5,479,136.9,478.6,136.2,478.6"/>
										<path id="path1269" inkscape:connector-curvature="0" class="st18" d="M171.9,572.8c-0.4,0-0.8,0.2-1.1,0.5
											c-0.5,0.6-0.5,1.6,0.1,2.1l10.9,9.5l-29.4-10.8l10.2,11.2l-8.6-2.6c-0.8-0.2-1.6,0.2-1.9,1c-0.2,0.8,0.2,1.6,1,1.9
											l19.1,5.8l-9.3-10.2l33,12.1l-23-20.2C172.6,572.9,172.2,572.8,171.9,572.8"/>
										<path id="path1271" inkscape:connector-curvature="0" class="st18" d="M89.7,569.4l23.4,24.5c0.6,0.6,1.5,0.6,2.1,0
											c0.6-0.6,0.6-1.5,0-2.1L103,579l32.8,15.4l-10.5-13.7l10.3,4.2c0.8,0.3,1.6-0.1,2-0.8c0.3-0.8-0.1-1.6-0.8-2l-20.4-8.3
											l9.7,12.6L89.7,569.4z"/>
										<path id="path1273" inkscape:connector-curvature="0" class="st18" d="M405.5,514.9l-30.3,11.9c-0.8,0.3-1.1,1.2-0.8,1.9
											c0.3,0.8,1.2,1.2,1.9,0.8l15.3-6l-25.2,23.1l15.8-4.3l-7.1,7.3c-0.6,0.6-0.6,1.5,0,2.1c0.6,0.6,1.5,0.6,2.1,0l14.8-15.2
											l-14.5,3.9L405.5,514.9z"/>
										<path id="path1275" inkscape:connector-curvature="0" class="st18" d="M65.3,412.6l0.8,12.8l-3.7-5.5
											c-0.5-0.7-1.4-0.9-2.1-0.4c-0.7,0.5-0.9,1.4-0.4,2.1l9.8,14.6L69,424.7l15.3,25.6l-4.6-26.6c-0.1-0.8-0.9-1.4-1.7-1.2
											c-0.8,0.1-1.4,0.9-1.2,1.7l1.8,10.7L65.3,412.6z"/>
										<path id="path1277" inkscape:connector-curvature="0" class="st18" d="M522.2,347.4L506.5,372c-0.4,0.7-0.2,1.6,0.5,2.1
											c0.7,0.4,1.6,0.2,2.1-0.5l7-11l-5.8,28.7l8.9-11.1l-1.2,8c-0.1,0.8,0.4,1.6,1.3,1.7c0.8,0.1,1.6-0.4,1.7-1.3l2.7-18.8
											l-8.1,10L522.2,347.4z"/>
										<path id="path1279" inkscape:connector-curvature="0" class="st18" d="M327.2,409.5c-0.3,0-0.6,0.1-0.9,0.3L310.2,421
											l13.5-1l-29.5,18.2l29.8-5.6c0.8-0.2,1.4-0.9,1.2-1.8s-0.9-1.3-1.8-1.2l-13.9,2.6l26.2-16.2l-14.9,1.1l7.2-5
											c0.7-0.5,0.8-1.4,0.4-2.1C328.2,409.7,327.7,409.5,327.2,409.5"/>
										<path id="path1281" inkscape:connector-curvature="0" class="st18" d="M593.5,12.7l-24.4,0.2c-0.8,0-1.5,0.7-1.5,1.5
											c0,0.8,0.7,1.5,1.5,1.5h0l8.2-0.1l-20.6,8.1l11.1,1.2l-4.5,2.1c-0.8,0.3-1.1,1.2-0.7,2c0.3,0.8,1.2,1.1,2,0.7l14.5-6.6
											l-9.7-1L593.5,12.7z"/>
										<path id="path1283" inkscape:connector-curvature="0" class="st18" d="M68,147.8l9.7,7L47,150.3L71.3,164
											c0.7,0.4,1.6,0.2,2-0.6c0.4-0.7,0.2-1.6-0.6-2l-10.2-5.7l26.9,4l-10.8-7.8l7.1,0.6c0.8,0.1,1.6-0.5,1.6-1.4
											c0.1-0.8-0.5-1.6-1.4-1.6L68,147.8z"/>
										<path id="path1285" inkscape:connector-curvature="0" class="st18" d="M343.6,149.8l0,13.6l-3.8-6.5
											c-0.4-0.7-1.3-0.9-2.1-0.5c-0.7,0.4-0.9,1.3-0.5,2.1l9.4,15.9l0-12.3l14.6,28.2l-3.1-28.1c-0.1-0.8-0.8-1.4-1.7-1.3
											c-0.8,0.1-1.4,0.8-1.3,1.7l1.3,12.1L343.6,149.8z"/>
										<path id="path1287" inkscape:connector-curvature="0" class="st18" d="M65.9,175.1l-6.9,7.8l0.8-4.2
											c0.2-0.8-0.4-1.6-1.2-1.8c-0.8-0.2-1.6,0.4-1.8,1.2l-2.8,15l6-6.9L54.2,210l13.4-19.1c0.5-0.7,0.3-1.6-0.4-2.1
											c-0.7-0.5-1.6-0.3-2.1,0.4l-4.1,5.9L65.9,175.1z"/>
										<path id="path1289" inkscape:connector-curvature="0" class="st18" d="M555.4,522.8c-0.3,0-0.7,0.1-0.9,0.3l-13.6,10.7
											l11-1.5L528.2,549l25.7-6.4c0.8-0.2,1.3-1,1.1-1.8s-1-1.3-1.8-1.1l-10,2.5l20.6-14.5l-12.3,1.6l5-3.9
											c0.7-0.5,0.8-1.5,0.3-2.1C556.3,523,555.8,522.8,555.4,522.8"/>
									</g>
								</g>
							</g>
							<g id="g1291">
								<g>
									<defs>
										<rect id="SVGID_11_" x="-99.8" y="-686.6" width="798.7" height="791.7"/>
									</defs>
									<clipPath id="SVGID_12_">
										<use xlink:href="#SVGID_11_"  style="overflow:visible;"/>
									</clipPath>
									<g id="g1293" class="st19">
										<path id="path1299" inkscape:connector-curvature="0" class="st10" d="M366.4-5.5c-0.1,0-0.3,0-0.4,0.1l-11.2,3.1
											c-0.8,0.2-1.3,1-1.1,1.8c0.2,0.8,1,1.3,1.8,1.1l11.2-3.1c0.8-0.2,1.3-1,1.1-1.8C367.7-5.1,367.1-5.5,366.4-5.5"/>
										<path id="path1301" inkscape:connector-curvature="0" class="st4" d="M11-25.2L0.3-12.4c-0.5,0.6-0.4,1.6,0.2,2.1
											c0.6,0.5,1.6,0.4,2.1-0.2l7.4-8.9l4.2,11.1l7.5-9.6l3.9,13.6l7.5-10.3l9,19.7l6.3-13.7l3.2,9.9c0.3,0.8,1.1,1.2,1.9,1
											c0.8-0.3,1.2-1.1,1-1.9l-5.5-17.3L42.2-2.2l-8.4-18.4L26.8-11L23-24.3l-7.8,10L11-25.2z"/>
										<path id="path1303" inkscape:connector-curvature="0" class="st11" d="M494.9-27.7l11.8-0.2l6.5-9.8l3.8,11.2l11.4,3.2
											l-9.4,7.1l0.5,11.8l-9.7-6.8l-11.1,4.1l3.5-11.3L494.9-27.7z M514.1-44.4l-9,13.6l-16.3,0.3l10.1,12.8l-4.8,15.6l15.3-5.7
											l13.4,9.4L522-14.8l13-9.8L519.4-29L514.1-44.4z"/>
										<path id="path1305" inkscape:connector-curvature="0" class="st11" d="M573.4-11.2l4-1.1l1.3-4l2.3,3.5l4.2,0.1l-2.6,3.3
											l1.2,4L580-7l-3.4,2.4l0.2-4.2L573.4-11.2z M577.8-23.1l-2.8,8.2l-8.4,2.4l7,5.2l-0.3,8.7l7.1-5l8.2,3L586-8.9l5.4-6.8
											l-8.7-0.1L577.8-23.1z"/>
										<path id="path1307" inkscape:connector-curvature="0" class="st12" d="M444.6-6.4c-0.1-0.4-0.3-0.8-0.7-1
											c0.1-0.1,0.3-0.1,0.4,0C444.7-7.2,444.8-6.8,444.6-6.4 M445.6-19.6c-4,0-7.9,1.9-10.2,5.5c-1.5,2.3-2,4.9-1.5,7.6
											c0.5,2.6,2.1,4.9,4.3,6.4c1.9,1.2,4.1,1.7,6.3,1.2c2.2-0.4,4.1-1.7,5.3-3.6c1-1.6,1.4-3.4,1-5.3c-0.4-1.8-1.4-3.4-3-4.4
											c-2.7-1.8-6.4-1-8.2,1.7c-1.5,2.3-0.9,5.4,1.4,7c2,1.3,4.7,0.8,6-1.2c0.8-1.3,0.8-2.8,0.1-4c0.4,0.5,0.6,1,0.8,1.7
											c0.2,1,0,2.1-0.6,3c-0.8,1.2-2,2-3.4,2.3c-1.4,0.3-2.8,0-4-0.8c-1.6-1-2.7-2.6-3-4.5c-0.4-1.9,0-3.8,1-5.3
											c2.8-4.3,8.6-5.4,12.8-2.6c0.7,0.5,1.6,0.3,2.1-0.4c0.5-0.7,0.3-1.6-0.4-2.1C450.2-18.9,447.9-19.6,445.6-19.6"/>
										<path id="path1309" inkscape:connector-curvature="0" class="st14" d="M265.3-0.2c-3.2-0.4-5.5-3.3-5.1-6.5
											c0.2-1.6,1-2.9,2.2-3.9c1.2-1,2.8-1.4,4.3-1.2s2.9,1,3.9,2.2c1,1.2,1.4,2.8,1.2,4.3c-0.2,1.6-1,2.9-2.2,3.9
											C268.4-0.4,266.8,0,265.3-0.2 M266-14.8c-4.4,0-8.3,3.3-8.8,7.8c-0.3,2.4,0.4,4.7,1.9,6.5c1.5,1.9,3.6,3,5.9,3.3
											c2.4,0.3,4.7-0.4,6.5-1.9c1.9-1.5,3-3.6,3.3-5.9c0.3-2.4-0.4-4.7-1.9-6.5c-1.5-1.9-3.6-3-5.9-3.3
											C266.6-14.8,266.3-14.8,266-14.8"/>
										<path id="path1311" inkscape:connector-curvature="0" class="st16" d="M383.9-23.3l10-11.7l16.6,24.8L400.4,1.3
											L383.9-23.3z M394.2-40l-14,16.5L400,6.2L414.3-10L394.2-40z"/>
										<path id="path1313" inkscape:connector-curvature="0" class="st18" d="M89.7-24.4l23.4,24.5c0.6,0.6,1.5,0.6,2.1,0
											c0.6-0.6,0.6-1.5,0-2.1L103-14.8l32.8,15.4l-10.5-13.7L135.6-9c0.8,0.3,1.6-0.1,2-0.8c0.3-0.8-0.1-1.6-0.8-2L116.3-20
											L126-7.4L89.7-24.4z"/>
									</g>
								</g>
							</g>
						</g>
					</g>
				</g>
				<path id="path1315" inkscape:connector-curvature="0" class="st10" d="M530.3,216.3c-0.9,0.5-1.7,0.5-2.7,0
					c-1.9-1-2.7-2.5-2.5-4.5c0.1-1,0.6-1.7,1.6-2c0.4-0.1,0.7-0.2,1.1-0.2c1,0,1.9,0.5,2.7,1.4c0.8,0.9,1.2,1.9,1.2,2.9
					C531.7,215,531.2,215.8,530.3,216.3 M492.9,215.6c-0.6,0-1-0.1-1.4-0.4c-1.2-0.7-1.9-1.9-1.9-3.4c0-1.6,0.6-2.6,1.8-2.9
					c1.3-0.2,2.3,0.2,3.1,1.2c0.7,1,1,1.9,1,2.9c0,0.7-0.2,1.3-0.6,1.8C494.2,215.3,493.6,215.6,492.9,215.6 M298,215.6
					c-0.6,0-1-0.1-1.4-0.4c-1.2-0.7-1.9-1.9-1.9-3.4c0-1.6,0.6-2.6,1.8-2.9c1.3-0.2,2.3,0.2,3.1,1.2c0.7,1,1,1.9,1,2.9
					c0,0.7-0.2,1.3-0.6,1.8C299.4,215.3,298.8,215.6,298,215.6 M45.3,219.3c-1.5-0.2-2.4-1.3-2.9-3.2c1.4,0,3.5,0,6.2,0
					c0,0.4-0.1,1-0.3,1.8C47.8,219.1,46.8,219.6,45.3,219.3 M108.2,219.3c-1.5-0.2-2.4-1.3-2.9-3.2c1.4,0,3.5,0,6.2,0
					c0,0.4-0.1,1-0.3,1.8C110.6,219.1,109.7,219.6,108.2,219.3 M558.4,348.3H511l-3.1-14.6l45.1-0.4l-7.5-37.7h-44.5
					c-0.7-3.5-1.7-8.9-2.9-16.3h52.4v-0.2l-7.3-38.3H434.9l27.6,146.4h103.4L558.4,348.3z M539.7,205.2c-3.1-3.6-7.3-5.4-12.7-5.4
					c-0.8,0-1.6,0-2.5,0.1c-2.3,0.2-4.4,1-6.3,2.2c-2,1.3-3.4,3-4.2,5c-0.5,1.2-0.7,2.5-0.7,3.9c0,2.9,0.9,5.7,2.7,8.3
					c3,4.4,7.6,6.6,13.8,6.8c2.6,0.1,5-0.4,7-1.4c2.3-1.1,4-2.7,5.1-4.8c0.8-1.6,1.2-3.3,1.2-5.3
					C543.2,211.1,542.1,207.9,539.7,205.2 M504.8,202.3c-0.9-4.7-3.1-7.9-6.8-9.8c-2.7-1.4-5.8-2.1-9.5-2.1c-4,0-7.6,0.8-10.8,2.3
					l3.9,6.8c1.5-1.2,3.4-1.8,5.4-1.8c1.3,0,2.5,0.3,3.5,0.9c1,0.6,1.8,1.5,2.5,2.7c0.2,0.5,0.6,1.6,1.2,3.4h0
					c-1.8-2.3-4.4-3.4-7.6-3.4c-3.9,0-6.7,1.6-8.1,4.8c-0.7,1.5-1.1,3.2-1.1,5.1c0,3.2,0.9,6.2,2.8,8.9c2.5,3.8,5.8,5.6,10,5.6
					c0.5,0,1,0,1.4-0.1c2.5-0.3,4.4-1.6,5.7-4c0-0.1,0.1-0.1,0.1-0.1l0.5,3.5h11.3L504.8,202.3z M460.8,216.1h-3.9l-3-15.4h-11.8
					l2.9,15.4c-0.8,0.1-1.9,0.1-3.2,0.1l1.7,8.8h3.2l1.3,7.1l11.8-0.1l-1.2-7l3.9,0L460.8,216.1z M434.6,216.7
					c-1.7,1.5-3.3,2.3-4.7,2.3c-0.3,0-0.5,0-0.8-0.1c-0.3-0.1-0.5-0.4-0.6-0.8c-0.2-0.4,0-0.7,0.4-1c1-0.4,2.1-0.9,3.1-1.3
					c1.2-0.5,2.2-1.1,2.9-1.7c1.3-1.2,1.9-2.8,1.9-4.7c0-0.7-0.1-1.5-0.2-2.2c-0.4-1.6-1.3-3-2.8-4.3c-1.5-1.2-3.1-2-4.9-2.4
					c-1.1-0.2-2.3-0.3-3.4-0.3c-4.1,0-8.1,1.4-11.9,4.1l4.4,7.1c1.4-1.2,2.4-2.1,3-2.5c1.2-0.8,2.5-1.2,3.6-1.2
					c0.9,0,1.4,0.3,1.6,0.8c0.1,0.4,0,0.7-0.2,0.9c-0.6,0.4-1.4,0.9-2.5,1.4c-1.2,0.5-2.1,1-2.5,1.3c-2.1,1.4-3.1,3.3-3.1,5.8
					c0,1.9,0.7,3.6,2.2,5.2c1.4,1.4,3.1,2.4,5,2.9c1.2,0.3,2.5,0.4,3.8,0.4c3.6,0,6.9-1,10-3.1L434.6,216.7z M409.7,205.3
					c-1.1-1.6-2.6-2.8-4.2-3.7c-2.3-1.2-5.2-1.8-8.5-1.8c-1.4,0-2.9,0.1-4.3,0.3c-2.5,0.6-4.5,1.7-5.9,3.2c-1.7,1.8-2.5,4-2.5,6.7
					c0,0.6,0,1.2,0.1,1.9l0.3,2.5l2.1,10.8h11.8l-2.4-13c0-0.9,0.2-1.5,0.6-2c0.7-0.4,1.4-0.5,2.2-0.3c0.7,0.3,1.2,0.8,1.5,1.7
					c0.1,0.3,0.3,1.1,0.5,2.2l2.2,11.4h11.5l-2.9-14.6C411.6,208.6,410.8,206.9,409.7,205.3 M318.7,240.9l0.6,4.7l26.5,142.2
					l55.1-0.2l-18.4-102.1h46l-8.4-44.6l-1.9-0.4L318.7,240.9z M381.1,212.3l-2.2-11.8l-12,0l2.6,14c0.1,0.9-0.1,1.5-0.5,1.9
					c-0.6,0.4-1.2,0.5-1.8,0.2c-0.8-0.4-1.3-1-1.7-1.9c-0.3-0.9-0.6-1.8-0.8-2.7l-2.2-11.5l-0.4,0h-11.3l2.6,14.1
					c0.2,0.9,0,1.6-0.7,2.1c-0.4,0.3-1,0.3-1.8,0c-0.8-0.4-1.4-1.3-1.9-2.7l-0.6-2.6l-2-10.9h-11.6l4.4,24.5h11.5l-0.9-3.7
					c2.5,3,5.4,4.5,8.5,4.5c0.8,0,1.6-0.1,2.5-0.4c1.2-0.3,2.2-1.1,3-2.1c0.6-0.8,1-1.6,1.1-2.4c2.7,3.3,5.8,5,9.2,5
					c0.6,0,1.2-0.1,1.8-0.2c1.3-0.3,2.5-0.8,3.5-1.7c1.1-0.9,1.8-1.9,2.1-3.1c0.3-0.9,0.4-1.9,0.4-3
					C381.9,216.8,381.6,214.9,381.1,212.3 M310,202.3c-0.9-4.7-3.1-7.9-6.8-9.8c-2.7-1.4-5.8-2.1-9.5-2.1c-4,0-7.6,0.8-10.8,2.3
					l3.9,6.8c1.5-1.2,3.4-1.8,5.4-1.8c1.3,0,2.5,0.3,3.5,0.9s1.8,1.5,2.5,2.7c0.2,0.5,0.6,1.6,1.2,3.4h0c-1.8-2.3-4.4-3.4-7.6-3.4
					c-3.9,0-6.7,1.6-8.1,4.8c-0.7,1.5-1.1,3.2-1.1,5.1c0,3.2,0.9,6.2,2.8,8.9c2.5,3.8,5.8,5.6,10,5.6c0.5,0,1,0,1.4-0.1
					c2.5-0.3,4.4-1.6,5.7-4c0-0.1,0-0.1,0-0.1l0.5,3.5h11.3L310,202.3z M281.5,216.7l-2.9-16.1l-0.1,0l-11.9,0l2.6,13.5
					c0.1,1.1,0.1,1.5,0.1,1.3c0,0.5-0.2,0.9-0.5,1.2c-0.4,0.3-1,0.4-1.8,0.2c-1.1-0.5-1.9-1.4-2.4-2.7c-0.1-0.3-0.4-1.5-0.8-3.5
					l-2-9.9h-11.8l4.7,24.3l11.5,0c-0.4-1.4-0.7-2.6-1-3.6c2.3,2.8,5.3,4.2,9,4.4c3.1,0.2,5.3-0.9,6.6-3.2c0.6-1.1,0.9-2.4,0.9-3.9
					C281.6,218,281.6,217.3,281.5,216.7 M243.6,226.5c-1.3,0-2.5,0.3-3.6,1c-1.2,0.7-1.9,1.7-2.3,2.9c-0.1,0.5-0.2,1-0.2,1.6
					c0,1.9,0.8,3.4,2.3,4.6c1.4,1.2,3.1,1.8,5.1,1.8c0.8,0,1.6-0.1,2.3-0.3c1.2-0.5,2.2-1.2,2.8-2.1c0.7-0.9,1-2,1-3.2
					c0-0.9-0.2-1.7-0.5-2.4C249.2,227.9,246.9,226.5,243.6,226.5 M244.1,200.7l-0.5-0.1l-11.4,0.1L237,225l11.8,0L244.1,200.7z
					 M229.7,215.6l-2.8-15.1l-12,0l2.6,13.4c0,0,0,0.3,0.1,0.9c0,0.4,0,0.7-0.1,1c-0.1,0.3-0.2,0.5-0.4,0.7
					c-0.5,0.4-1.1,0.5-1.9,0.2c-1.1-0.4-1.9-1.5-2.6-3.6l-1.2-5.8l-1.3-6.9l-0.4,0l-11.5,0.1l7.2,37.3l11.7-0.1l-3.7-16.6h0.1
					c2.5,2.9,5.5,4.4,9.2,4.5c1.4,0,2.7-0.3,3.9-0.9c1.2-0.6,2.1-1.5,2.6-2.7c0.5-0.9,0.7-2,0.7-3.3
					C230,217.9,229.9,216.9,229.7,215.6 M194,216.1l-3-15.4h-11.8l2.9,15.4c-0.8,0.1-1.9,0.1-3.2,0.1l1.7,8.8h3.2l1.3,7.1l11.8-0.1
					l-1.2-7l3.9,0l-1.7-8.8L194,216.1z M158.1,191h-12.9l0.3,0.6l8.6,13.5l-5.6,19.9H160l1.9-10.5c0,0,0,0,0,0l5,10.6h12.5
					L158.1,191z M141.9,216.4c-1.2,0-2.3-0.3-3.1-1c-1-0.9-1.7-2.8-2.3-5.7l-1.6-9H123l0.5,3l4.1,21.4h10.9
					c-0.2-0.7-0.4-1.8-0.7-3.3c1.8,2.6,4.2,3.8,7,3.8c1,0,1.9-0.2,2.9-0.5l-1.9-9.8C144.6,216,143.3,216.4,141.9,216.4 M121.4,211.6
					h-17c-0.1-1.5,0.2-2.5,0.9-3.2c0.5-0.4,1.2-0.7,2.1-0.7c1.4,0,2.6,0.7,3.5,2l9.4-1.7c-2.2-3.7-5.1-6.2-8.8-7.3
					c-1.5-0.5-3.2-0.7-4.9-0.7c-3,0-5.7,0.7-8.1,2.1c-3.3,1.9-4.9,5-4.9,9.4c0,3,0.9,5.7,2.6,8.2c1.7,2.5,4,4.3,6.9,5.5
					c1.9,0.7,3.9,1.1,6,1.1c4.5,0,7.9-1.5,10.2-4.5c1.5-2,2.3-4.5,2.3-7.7C121.6,213.4,121.5,212.5,121.4,211.6 M77.7,200.7h-9.1
					L62.5,225h11.6l1.4-11.1l5.1,11.1h12.3L77.7,200.7z M58.6,211.6h-17c-0.1-1.5,0.2-2.5,0.9-3.2c0.5-0.4,1.2-0.7,2.1-0.7
					c1.4,0,2.6,0.7,3.5,2l9.4-1.7c-2.2-3.7-5.1-6.2-8.8-7.3c-1.5-0.5-3.2-0.7-4.9-0.7c-3,0-5.7,0.7-8.1,2.1c-3.3,1.9-4.9,5-4.9,9.4
					c0,3,0.9,5.7,2.6,8.2c1.7,2.5,4,4.3,6.9,5.5c1.9,0.7,3.9,1.1,6,1.1c4.5,0,7.9-1.5,10.2-4.5c1.5-2,2.3-4.5,2.3-7.7
					C58.7,213.4,58.6,212.5,58.6,211.6 M15.1,265.1v0.6l26.1,38c13.2-15.1,26.3-22.7,39.3-22.7c1.8,0,3.6,0.1,5.2,0.4
					c2.2,0.3,3.9,1.2,4.9,2.8c1,1.6,1.3,3.3,0.7,5.1c-1.4,2.3-4.7,4.3-10,6.1c-10,3.4-17.4,6.5-22.1,9.3
					c-7.9,4.5-13.4,10.1-16.3,16.8c-2.9,6.8-4.4,13.7-4.4,20.9c0,11.8,4.2,22.3,12.6,31.6c8.4,9.3,18.6,15.1,30.6,17.2
					c6,1.1,12,1.6,18,1.6c20.9,0,39.3-5.9,55.4-17.8v-0.8L134.4,339c-11,8.1-20.4,12.9-28.2,14.4c-3.8,0.7-7,0.1-9.6-1.6
					c-1.8-1.8-2.5-4-2.1-6.7c0.4-0.9,2.3-2.7,5.6-5.3c8.8-4.1,17.5-8,26.1-11.9c9.7-5.7,15.9-12.8,18.6-21.3
					c1.4-4.7,2.1-9.5,2.1-14.4c0-15.1-5.6-27.5-16.7-37.1c-10.2-8.8-23-14-38.6-15.8c-11.8-1.4-22.8-0.7-33,2
					C44.9,245.1,30.5,253,15.1,265.1 M218.8,387.8h60.4L299.2,241h-53.5c-0.3,4.3-0.7,10.7-1.3,19.2h-4.4l-32.8,0.4
					c-1-2.2-2.3-5.4-4.1-9.8c-1.7-4.4-3.1-7.7-4.1-9.8h-58.1L218.8,387.8z M600,428.6H0.2v-266H600V428.6z M239.4,334.8l-16.7-39.5
					h19.4L239.4,334.8z"/>
			</g>
		</g>
	</g>
</g>
</svg>
